<svg preserveAspectRatio="none" width="100%" height="100%" overflow="visible" style="display: block;" viewBox="0 0 25 21" fill="none" xmlns="http://www.w3.org/2000/svg">
<g id="Frame 1707480413">
<path id="Vector" d="M2.12094 3.00825C3.87414 1.01194 6.52706 0 10.0047 0H11.2543V3.69994L10.2496 3.91125C8.53768 4.27087 7.3468 4.97831 6.7095 6.0165C6.37697 6.57579 6.18838 7.21618 6.16217 7.875H10.0047C10.3361 7.875 10.654 8.01328 10.8883 8.25942C11.1227 8.50556 11.2543 8.8394 11.2543 9.1875V18.375C11.2543 19.8227 10.1334 21 8.75511 21H1.25746C0.926048 21 0.608206 20.8617 0.373859 20.6156C0.139512 20.3694 0.00785732 20.0356 0.00785732 19.6875V13.125L0.0116062 9.29381C0.000359702 9.14812 -0.237066 5.69625 2.12094 3.00825ZM22.5008 21H15.0031C14.6717 21 14.3539 20.8617 14.1195 20.6156C13.8852 20.3694 13.7535 20.0356 13.7535 19.6875V13.125L13.7573 9.29381C13.746 9.14812 13.5086 5.69625 15.8666 3.00825C17.6198 1.01194 20.2727 0 23.7504 0H25V3.69994L23.9953 3.91125C22.2834 4.27087 21.0925 4.97831 20.4552 6.0165C20.1227 6.57579 19.9341 7.21618 19.9079 7.875H23.7504C24.0818 7.875 24.3997 8.01328 24.634 8.25942C24.8683 8.50556 25 8.8394 25 9.1875V18.375C25 19.8227 23.8791 21 22.5008 21Z" fill="url(#paint0_linear_0_57)"/>
</g>
<defs>
<linearGradient id="paint0_linear_0_57" x1="12.5" y1="21" x2="12.5" y2="0" gradientUnits="userSpaceOnUse">
<stop stop-color="#F48021"/>
<stop offset="1" stop-color="#FFC868"/>
</linearGradient>
</defs>
</svg>
