<svg preserveAspectRatio="none" width="100%" height="100%" overflow="visible" style="display: block;" viewBox="0 0 1430 166" fill="none" xmlns="http://www.w3.org/2000/svg">
<g id="Group">
<g id="Vector">
<path d="M65.3451 165.147C50.9218 165.147 38.9493 162.969 29.4277 158.609C19.9061 154.249 12.6916 148.559 7.78986 141.521C2.88235 134.49 0.287661 126.995 0 119.042C0 117.822 0.466013 116.712 1.40379 115.718C2.34156 114.724 3.45767 114.23 4.75789 114.23H32.0224C34.0418 114.23 35.5952 114.615 36.6768 115.377C37.7584 116.145 38.7307 117.139 39.5994 118.359C40.7501 120.652 42.3725 122.872 44.4667 125.013C46.5551 127.153 49.3339 128.873 52.7973 130.172C56.2608 131.471 60.4434 132.123 65.3451 132.123C73.7103 132.123 80.0216 130.745 84.279 127.995C88.5306 125.244 90.6593 121.5 90.6593 116.755C90.6593 113.242 89.5029 110.413 87.1959 108.266C84.8889 106.126 81.1723 104.174 76.0519 102.418C70.9315 100.661 64.1139 98.8622 55.6049 97.0266C44.6393 94.5811 35.3018 91.4099 27.5867 87.5069C19.8659 83.6099 13.9918 78.4872 9.95308 72.1387C5.91431 65.7963 3.89491 57.8805 3.89491 48.4034C3.89491 38.9264 6.38032 30.7422 11.3569 23.4058C16.3334 16.0693 23.289 10.3306 32.2353 6.20196C41.1758 2.07329 51.779 0.0120006 64.0392 0.0120006C73.9922 0.0120006 82.7544 1.39026 90.3257 4.14067C97.8969 6.89109 104.283 10.5624 109.472 15.1484C114.662 19.7345 118.591 24.5889 121.266 29.7116C123.936 34.8343 125.34 39.8412 125.484 44.7321C125.484 45.9579 125.087 47.0679 124.293 48.0558C123.499 49.0499 122.377 49.5438 120.939 49.5438H92.3796C90.7917 49.5438 89.4224 49.2389 88.266 48.6291C87.1096 48.0192 86.1028 47.0252 85.2398 45.6469C84.3768 42.2866 82.1043 39.3411 78.4222 36.8163C74.7459 34.2915 69.9477 33.0292 64.0334 33.0292C57.6818 33.0292 52.7456 34.2184 49.2131 36.5846C45.6749 38.9569 43.9144 42.5855 43.9144 47.4765C43.9144 50.5379 44.8867 53.209 46.837 55.5021C48.7816 57.7951 52.0322 59.7832 56.5715 61.4664C61.1165 63.1496 67.353 64.9059 75.2867 66.7416C88.4098 69.3456 99.013 72.59 107.091 76.4869C115.168 80.3838 121.117 85.4334 124.943 91.6233C128.763 97.8133 130.679 105.577 130.679 114.901C130.679 125.299 127.865 134.246 122.239 141.735C116.612 149.23 108.932 154.999 99.1971 159.054C89.4627 163.104 78.1691 165.134 65.3336 165.134L65.3451 165.147Z" fill="url(#paint0_linear_0_59)"/>
<path d="M64.0391 1.012C73.9019 1.012 82.5447 2.37776 89.9844 5.08036C97.4566 7.79482 103.729 11.4072 108.811 15.8977C113.606 20.1356 117.285 24.585 119.876 29.2405L120.38 30.1741C122.986 35.1759 124.34 40.0257 124.483 44.7317C124.483 45.7219 124.17 46.6127 123.514 47.429L123.512 47.4319C122.936 48.1531 122.121 48.5442 120.938 48.5442H92.3799C90.9204 48.5442 89.7175 48.2639 88.7324 47.7444C87.7964 47.2508 86.9368 46.4329 86.1631 45.2308C85.1929 41.6474 82.752 38.5729 78.9873 35.9915C75.0979 33.3207 70.0841 32.0296 64.0332 32.0296C57.776 32.0296 52.739 33.1616 49.0127 35.5218L48.6562 35.7542C44.7956 38.3427 42.9141 42.3112 42.9141 47.4768C42.9141 50.7702 43.9682 53.6709 46.0742 56.1477V56.1487C48.1784 58.6299 51.6126 60.6938 56.2236 62.4036L56.2246 62.4046C60.8273 64.109 67.1108 65.8765 75.0615 67.7161L75.0762 67.719L75.0918 67.722C88.1688 70.3169 98.6827 73.5412 106.656 77.388C114.353 81.1013 120.023 85.8476 123.738 91.5901L124.092 92.1487C127.791 98.1423 129.679 105.711 129.679 114.902C129.679 124.789 127.091 133.29 121.945 140.446L121.439 141.134C116.105 148.24 108.872 153.779 99.7061 157.751L98.8125 158.131C89.2231 162.12 78.0648 164.134 65.334 164.134H63.5918C50.0475 163.964 38.8109 161.806 29.8438 157.7C20.4483 153.397 13.3892 147.811 8.61035 140.95V140.949C3.80952 134.07 1.2848 126.768 1 119.032C1.0026 118.1 1.35001 117.232 2.13086 116.405C2.88984 115.6 3.7474 115.231 4.75781 115.231H32.0225C33.9358 115.231 35.2544 115.597 36.1006 116.194C37.0633 116.878 37.9441 117.772 38.7461 118.887C39.9469 121.257 41.6204 123.532 43.751 125.71V125.711C45.9635 127.979 48.8776 129.769 52.4463 131.108C56.0515 132.46 60.3594 133.123 65.3447 133.123C73.7901 133.123 80.3284 131.737 84.8213 128.834H84.8223C89.3352 125.915 91.6592 121.866 91.6592 116.755C91.6592 112.999 90.4112 109.893 87.877 107.534L87.876 107.533L87.3984 107.109C84.929 105.003 81.2237 103.135 76.376 101.472C71.2043 99.698 64.3463 97.8893 55.8213 96.0501H55.8223C44.915 93.6176 35.6606 90.4707 28.0381 86.6145H28.0371C20.6897 82.9061 15.0848 78.089 11.1699 72.177L10.7969 71.6018L10.4355 71.0208C6.7615 64.9728 4.89456 57.4479 4.89453 48.4036C4.89453 39.1172 7.32563 31.1302 12.1846 23.9671C17.0482 16.7971 23.8549 11.1705 32.6543 7.10966C41.4351 3.05475 51.889 1.01201 64.0391 1.012Z" stroke="url(#paint1_linear_0_59)" stroke-opacity="0.1" stroke-width="2"/>
</g>
<g id="Vector_2">
<path d="M214.423 165.141C200.863 165.141 189.178 162.774 179.369 158.03C169.56 153.291 161.954 146.333 156.54 137.161C151.132 127.989 148.135 116.597 147.559 102.985C147.416 96.7158 147.341 89.9892 147.341 82.799C147.341 75.6089 147.41 68.7359 147.559 62.1557C148.135 48.8549 151.161 37.5361 156.65 28.2116C162.132 18.887 169.773 11.8493 179.588 7.11083C189.397 2.37231 201.007 0 214.423 0C223.945 0 232.742 1.26239 240.819 3.78716C248.897 6.31193 255.967 9.97711 262.026 14.7949C268.084 19.6127 272.807 25.4246 276.196 32.2244C279.584 39.0303 281.351 46.7143 281.495 55.2766C281.638 56.6549 281.241 57.8014 280.304 58.7162C279.366 59.6309 278.25 60.0944 276.95 60.0944H247.74C245.865 60.0944 244.421 59.6736 243.414 58.832C242.401 57.9904 241.538 56.4231 240.819 54.1301C238.8 46.0252 235.521 40.4817 230.975 37.4995C226.43 34.5174 220.838 33.0294 214.205 33.0294C206.271 33.0294 199.994 35.3651 195.38 40.0243C190.76 44.6897 188.24 52.4469 187.809 63.3022C187.378 75.8407 187.378 88.6841 187.809 101.832C188.24 112.688 190.766 120.451 195.38 125.11C199.994 129.776 206.271 132.105 214.205 132.105C220.838 132.105 226.465 130.581 231.079 127.519C235.693 124.464 238.938 118.957 240.813 111.005C241.389 108.711 242.217 107.144 243.305 106.303C244.386 105.461 245.865 105.04 247.74 105.04H276.95C278.25 105.04 279.366 105.498 280.304 106.418C281.241 107.333 281.638 108.48 281.495 109.858C281.351 118.42 279.579 126.104 276.196 132.91C272.807 139.716 268.084 145.522 262.026 150.34C255.967 155.157 248.897 158.829 240.819 161.347C232.742 163.872 223.945 165.135 214.423 165.135V165.141Z" fill="url(#paint2_linear_0_59)"/>
<path d="M214.424 1C223.856 1.00004 232.551 2.25026 240.521 4.74121C248.492 7.23279 255.451 10.8434 261.403 15.5771C267.163 20.1578 271.688 25.6484 274.985 32.0479L275.301 32.6699C278.615 39.3264 280.353 46.8609 280.495 55.293V55.3369L280.5 55.3809C280.614 56.4749 280.31 57.3127 279.605 58C278.85 58.7369 277.982 59.0947 276.949 59.0947H247.74C246 59.0947 244.819 58.7023 244.056 58.0645L244.053 58.0625C243.27 57.4119 242.482 56.082 241.781 53.8574C239.732 45.6519 236.362 39.8373 231.524 36.6631C226.783 33.5523 220.99 32.0293 214.205 32.0293C206.064 32.0293 199.51 34.4332 194.67 39.3203C189.79 44.2483 187.245 52.3113 186.81 63.2627V63.2676C186.377 75.8295 186.377 88.6956 186.81 101.865V101.872C187.245 112.823 189.795 120.892 194.669 125.813C199.509 130.708 206.064 133.105 214.205 133.105C220.995 133.105 226.823 131.543 231.632 128.353L231.631 128.352C236.539 125.101 239.88 119.317 241.786 111.233C242.342 109.024 243.098 107.728 243.917 107.094L243.919 107.092C244.77 106.429 246.006 106.04 247.74 106.04H276.949C277.985 106.04 278.85 106.393 279.603 107.132L279.605 107.135C280.31 107.822 280.614 108.66 280.5 109.754L280.495 109.798V109.841C280.358 118.009 278.717 125.336 275.606 131.839L275.301 132.465C271.979 139.137 267.349 144.828 261.403 149.557C255.45 154.291 248.492 157.907 240.521 160.393H240.521C232.551 162.884 223.856 164.135 214.424 164.135H213.424C200.405 164.021 189.209 161.679 179.805 157.13H179.804C170.168 152.475 162.713 145.651 157.401 136.652H157.4C152.099 127.66 149.132 116.445 148.56 102.962C148.416 96.7011 148.341 89.982 148.341 82.7988C148.341 76.513 148.394 70.471 148.507 64.6563L148.56 62.1787C149.114 49.4243 151.941 38.5674 157.014 29.583L157.512 28.7188C162.726 19.8517 169.919 13.0977 179.125 8.4541L180.022 8.01172C189.669 3.35204 201.124 1 214.424 1Z" stroke="url(#paint3_linear_0_59)" stroke-opacity="0.1" stroke-width="2"/>
</g>
<g id="Vector_3">
<path d="M293.614 162.842C292.458 162.842 291.411 162.348 290.479 161.354C289.541 160.36 289.075 159.256 289.075 158.031C289.075 157.268 289.144 156.579 289.293 155.969L340.14 8.72152C340.572 7.03834 341.475 5.55031 342.844 4.25133C344.214 2.95236 346.124 2.29982 348.58 2.29982H380.603C383.054 2.29982 384.964 2.95236 386.339 4.25133C387.708 5.55031 388.611 7.04444 389.043 8.72152L439.671 155.969C439.959 156.579 440.103 157.268 440.103 158.031C440.103 159.256 439.631 160.366 438.699 161.354C437.761 162.348 436.645 162.842 435.345 162.842H408.73C406.567 162.842 404.945 162.269 403.863 161.122C402.781 159.976 402.097 158.945 401.809 158.024L393.369 134.631H335.595L327.374 158.024C327.081 158.939 326.436 159.976 325.429 161.122C324.417 162.269 322.685 162.842 320.234 162.842H293.62H293.614ZM344.461 101.601H384.705L364.58 41.0496L344.455 101.601H344.461Z" fill="url(#paint4_linear_0_59)"/>
<path d="M348.581 3.29982H380.603C382.875 3.29987 384.512 3.90062 385.652 4.97756C386.897 6.15884 387.694 7.49199 388.075 8.97072L388.084 9.00881L388.097 9.04689L438.725 156.294L438.744 156.347L438.767 156.396C438.984 156.855 439.103 157.396 439.103 158.03C439.103 158.97 438.75 159.842 437.971 160.668C437.212 161.472 436.355 161.842 435.345 161.842H408.73C406.737 161.842 405.421 161.317 404.59 160.437C403.554 159.338 402.987 158.438 402.764 157.727L402.757 157.705L402.75 157.686L394.31 134.291L394.072 133.631H334.887L334.652 134.299L326.43 157.693L326.426 157.706L326.421 157.719C326.186 158.451 325.639 159.369 324.68 160.461C323.946 161.292 322.567 161.842 320.234 161.842H293.614C292.781 161.842 291.986 161.499 291.208 160.67L291.206 160.668C290.421 159.837 290.075 158.971 290.075 158.03C290.075 157.342 290.137 156.749 290.256 156.244L341.085 9.04787L341.099 9.00978L341.109 8.96974C341.489 7.486 342.287 6.15878 343.533 4.97658C344.666 3.90136 346.302 3.29982 348.581 3.29982ZM363.631 40.7344L343.506 101.286L343.069 102.602H386.091L385.654 101.286L365.529 40.7344L364.58 37.8789L363.631 40.7344Z" stroke="url(#paint5_linear_0_59)" stroke-opacity="0.1" stroke-width="2"/>
</g>
<g id="Vector_4">
<path d="M462.6 162.848C461.013 162.848 459.712 162.275 458.705 161.129C457.693 159.982 457.192 158.646 457.192 157.116V8.03239C457.192 6.34921 457.699 4.97705 458.705 3.90371C459.712 2.83648 461.013 2.29982 462.6 2.29982H491.159C492.747 2.29982 494.042 2.83648 495.054 3.90371C496.061 4.97705 496.568 6.34921 496.568 8.03239V128.215H562.131C563.719 128.215 565.014 128.788 566.026 129.935C567.033 131.081 567.539 132.496 567.539 134.179V157.116C567.539 158.646 567.033 159.982 566.026 161.129C565.014 162.275 563.719 162.848 562.131 162.848H462.6Z" fill="url(#paint6_linear_0_59)"/>
<path d="M462.601 3.29982H491.159C492.492 3.29982 493.516 3.73682 494.325 4.58693V4.58791C495.134 5.45063 495.567 6.56654 495.567 8.03224V129.215H562.131C563.442 129.215 564.459 129.672 565.274 130.594V130.595C566.105 131.54 566.539 132.714 566.539 134.18V157.116C566.539 158.402 566.122 159.503 565.276 160.467C564.461 161.39 563.443 161.849 562.131 161.849H462.601C461.287 161.849 460.265 161.389 459.457 160.469L459.455 160.467L459.301 160.284C458.556 159.366 458.192 158.325 458.192 157.116V8.03224C458.192 6.56658 458.625 5.45062 459.435 4.58791L459.434 4.58693C460.235 3.73826 461.265 3.29982 462.601 3.29982Z" stroke="url(#paint7_linear_0_59)" stroke-opacity="0.1" stroke-width="2"/>
</g>
<g id="Vector_5">
<path d="M591.77 162.848C590.182 162.848 588.882 162.275 587.875 161.129C586.863 159.982 586.362 158.646 586.362 157.116V8.03239C586.362 6.34921 586.869 4.97705 587.875 3.90371C588.882 2.83648 590.182 2.29982 591.77 2.29982H692.814C694.402 2.29982 695.697 2.83648 696.709 3.90371C697.716 4.97705 698.222 6.34921 698.222 8.03239V29.5905C698.222 31.2737 697.716 32.6519 696.709 33.7192C695.697 34.7925 694.402 35.3231 692.814 35.3231H623.793V66.285H688.056C689.644 66.285 690.939 66.8583 691.951 68.0048C692.958 69.1513 693.464 70.5662 693.464 72.2493V92.2036C693.464 93.7343 692.958 95.0699 691.951 96.2164C690.939 97.3629 689.644 97.9361 688.056 97.9361H623.793V129.819H694.546C696.134 129.819 697.428 130.356 698.441 131.423C699.448 132.496 699.954 133.868 699.954 135.552V157.11C699.954 158.64 699.448 159.976 698.441 161.122C697.428 162.269 696.134 162.842 694.546 162.842H591.77V162.848Z" fill="url(#paint8_linear_0_59)"/>
<path d="M591.771 3.29982H692.814C694.147 3.29986 695.171 3.73703 695.979 4.58693V4.58791C696.789 5.45064 697.223 6.56649 697.223 8.03224V29.5908C697.223 31.0582 696.788 32.1785 695.981 33.0332C695.175 33.8884 694.152 34.3232 692.814 34.3233H622.793V67.2852H688.057C689.368 67.2852 690.385 67.7424 691.2 68.6641V68.6651C692.03 69.6106 692.465 70.7834 692.465 72.249V92.2031C692.465 93.489 692.048 94.5904 691.202 95.5547C690.387 96.4779 689.369 96.9365 688.057 96.9365H622.793V130.819H694.546C695.879 130.819 696.903 131.256 697.712 132.106V132.107C698.521 132.97 698.954 134.086 698.954 135.552V157.109C698.954 158.395 698.538 159.497 697.691 160.461C696.876 161.384 695.858 161.842 694.546 161.842H591.513C590.322 161.785 589.381 161.328 588.627 160.469L588.625 160.467L588.471 160.284C587.725 159.366 587.362 158.325 587.362 157.116V8.03224C587.362 6.56658 587.795 5.45062 588.604 4.58791L588.604 4.58693C589.405 3.73826 590.435 3.29982 591.771 3.29982Z" stroke="url(#paint9_linear_0_59)" stroke-opacity="0.1" stroke-width="2"/>
</g>
<g id="Vector_6">
<path d="M785.424 165.141C771.864 165.141 760.179 162.774 750.37 158.03C740.56 153.291 732.949 146.333 727.541 137.161C722.133 127.989 719.135 116.597 718.56 102.985C718.416 96.7158 718.341 89.9892 718.341 82.799C718.341 75.6089 718.41 68.7359 718.56 62.1557C719.135 48.8549 722.161 37.5361 727.65 28.2116C733.133 18.887 740.773 11.8493 750.588 7.11083C760.397 2.37231 772.007 0 785.424 0C794.946 0 803.742 1.26239 811.82 3.78716C819.897 6.31193 826.968 9.97711 833.026 14.7949C839.084 19.6127 843.808 25.4246 847.196 32.2244C850.585 39.0303 852.351 46.7143 852.495 55.2766C852.639 56.6549 852.242 57.8014 851.304 58.7162C850.366 59.6309 849.25 60.0944 847.95 60.0944H818.741C816.865 60.0944 815.421 59.6736 814.415 58.832C813.402 57.9904 812.539 56.4231 811.82 54.1301C809.8 46.0252 806.521 40.4817 801.976 37.4995C797.431 34.5174 791.839 33.0294 785.205 33.0294C777.272 33.0294 770.995 35.3651 766.381 40.0243C761.761 44.6897 759.241 52.4469 758.809 63.3022C758.378 75.8407 758.378 88.6841 758.809 101.832C759.241 112.688 761.767 120.451 766.381 125.11C770.995 129.776 777.272 132.105 785.205 132.105C791.839 132.105 797.465 130.581 802.079 127.519C806.694 124.464 809.938 118.957 811.814 111.005C812.389 108.711 813.218 107.144 814.299 106.303C815.381 105.461 816.86 105.04 818.735 105.04H847.944C849.244 105.04 850.361 105.498 851.298 106.418C852.236 107.333 852.633 108.48 852.489 109.858C852.345 118.42 850.574 126.104 847.191 132.91C843.802 139.716 839.079 145.522 833.02 150.34C826.962 155.157 819.892 158.829 811.814 161.347C803.737 163.872 794.94 165.135 785.418 165.135L785.424 165.141Z" fill="url(#paint10_linear_0_59)"/>
<path d="M785.424 1C794.857 1.00004 803.551 2.25027 811.521 4.74121C819.492 7.23279 826.451 10.8434 832.404 15.5771C838.164 20.1578 842.688 25.6484 845.986 32.0479L846.301 32.6699C849.615 39.3264 851.354 46.8609 851.496 55.293V55.3369L851.5 55.3809C851.615 56.4749 851.31 57.3127 850.606 58C849.85 58.7369 848.983 59.0947 847.95 59.0947H818.741C817.001 59.0947 815.819 58.7024 815.056 58.0645L815.053 58.0625C814.271 57.4119 813.482 56.082 812.782 53.8574C810.732 45.6519 807.363 39.8373 802.525 36.6631C797.784 33.5523 791.99 32.0293 785.206 32.0293C777.064 32.0293 770.51 34.4332 765.67 39.3203C760.79 44.2483 758.245 52.3113 757.81 63.2627V63.2676C757.378 75.8295 757.378 88.6956 757.81 101.865V101.872C758.245 112.823 760.796 120.892 765.669 125.813C770.51 130.708 777.065 133.105 785.206 133.105C791.995 133.105 797.824 131.543 802.632 128.353L802.631 128.352C807.54 125.101 810.88 119.317 812.787 111.233C813.343 109.024 814.098 107.726 814.914 107.092C815.765 106.429 817.001 106.04 818.735 106.04H847.944C848.98 106.04 849.846 106.393 850.598 107.132L850.6 107.135C851.305 107.822 851.609 108.66 851.495 109.754L851.49 109.798V109.841C851.353 118.009 849.712 125.336 846.601 131.839L846.295 132.465C842.973 139.137 838.344 144.828 832.398 149.557C826.445 154.291 819.487 157.907 811.516 160.393C803.546 162.884 794.851 164.135 785.418 164.135H784.349C771.363 164.013 760.191 161.67 750.805 157.13H750.804C741.168 152.475 733.707 145.651 728.402 136.653C723.1 127.661 720.132 116.445 719.56 102.962C719.416 96.7011 719.341 89.982 719.341 82.7988C719.341 76.513 719.394 70.471 719.507 64.6563L719.56 62.1787C720.114 49.4243 722.942 38.5674 728.014 29.583L728.512 28.7188C733.726 19.8516 740.919 13.0977 750.125 8.4541L751.023 8.01172C760.669 3.35204 772.124 1 785.424 1Z" stroke="url(#paint11_linear_0_59)" stroke-opacity="0.1" stroke-width="2"/>
</g>
<g id="Vector_7">
<path d="M880.628 162.848C879.04 162.848 877.74 162.275 876.733 161.129C875.721 159.982 875.22 158.646 875.22 157.116V8.03239C875.22 6.34921 875.726 4.97705 876.733 3.90371C877.74 2.83648 879.04 2.29982 880.628 2.29982H939.484C958.233 2.29982 972.944 6.84928 983.622 15.9482C994.295 25.0471 999.634 37.9332 999.634 54.5943C999.634 65.4557 997.177 74.6278 992.275 82.1167C987.368 89.6117 980.878 95.2711 972.801 99.0887L1002.44 155.512C1002.87 156.427 1003.09 157.274 1003.09 158.037C1003.09 159.262 1002.62 160.372 1001.68 161.36C1000.74 162.348 999.697 162.848 998.546 162.848H969.769C967.024 162.848 965.011 162.123 963.711 160.671C962.41 159.22 961.473 157.884 960.897 156.658L936.233 106.2H914.164V157.116C914.164 158.646 913.623 159.982 912.541 161.129C911.46 162.275 910.125 162.848 908.537 162.848H880.628ZM914.164 73.6276H939.046C945.824 73.6276 950.91 71.8712 954.298 68.3524C957.687 64.8397 959.384 60.0951 959.384 54.1308C959.384 48.1665 957.762 43.3487 954.517 39.6835C951.272 36.0122 946.111 34.1766 939.046 34.1766H914.164V73.6276Z" fill="url(#paint12_linear_0_59)"/>
<path d="M880.628 3.29982H939.484C958.076 3.29985 972.53 7.80957 982.974 16.709C993.381 25.5818 998.633 38.166 998.633 54.5947C998.633 65.3028 996.213 74.2748 991.439 81.5694C986.632 88.9107 980.283 94.4461 972.374 98.1846L971.43 98.6299L971.916 99.5537L1001.54 155.938H1001.54C1001.92 156.762 1002.09 157.462 1002.09 158.036C1002.09 158.976 1001.74 159.847 1000.96 160.672C1000.17 161.503 999.37 161.849 998.546 161.849H969.769C967.191 161.849 965.499 161.169 964.456 160.004C963.194 158.595 962.322 157.341 961.802 156.233L961.799 156.227L961.795 156.219L937.131 105.761L936.858 105.199H913.164V157.116C913.163 158.383 912.727 159.475 911.814 160.442C910.923 161.387 909.851 161.849 908.537 161.849H880.628C879.314 161.849 878.293 161.389 877.485 160.469L877.483 160.467L877.329 160.284C876.583 159.366 876.22 158.325 876.22 157.116V8.03224C876.22 6.56652 876.653 5.4506 877.462 4.58791L877.461 4.58693C878.263 3.73828 879.293 3.29982 880.628 3.29982ZM913.164 74.6279H939.046C945.987 74.6279 951.378 72.8268 955.019 69.0459L955.018 69.0449C958.624 65.3064 960.384 60.2929 960.384 54.1309C960.384 47.9783 958.705 42.9065 955.265 39.0205C951.759 35.0539 946.267 33.1768 939.046 33.1768H913.164V74.6279Z" stroke="url(#paint13_linear_0_59)" stroke-opacity="0.1" stroke-width="2"/>
</g>
<g id="Vector_8">
<path d="M1016.08 162.842C1014.92 162.842 1013.87 162.348 1012.94 161.354C1012 160.36 1011.54 159.256 1011.54 158.031C1011.54 157.268 1011.61 156.579 1011.76 155.969L1062.6 8.72152C1063.03 7.03834 1063.94 5.55031 1065.31 4.25133C1066.68 2.95236 1068.59 2.29982 1071.04 2.29982H1103.06C1105.52 2.29982 1107.43 2.95236 1108.8 4.25133C1110.17 5.55031 1111.07 7.04444 1111.5 8.72152L1162.13 155.969C1162.42 156.579 1162.56 157.268 1162.56 158.031C1162.56 159.256 1162.09 160.366 1161.16 161.354C1160.22 162.348 1159.11 162.842 1157.81 162.842H1131.19C1129.03 162.842 1127.41 162.269 1126.33 161.122C1125.24 159.976 1124.56 158.945 1124.27 158.024L1115.83 134.631H1058.06L1049.84 158.024C1049.55 158.939 1048.9 159.976 1047.89 161.122C1046.88 162.269 1045.15 162.842 1042.7 162.842H1016.08H1016.08ZM1066.92 101.601H1107.17L1087.04 41.0496L1066.92 101.601H1066.92Z" fill="url(#paint14_linear_0_59)"/>
<path d="M1071.04 3.29982H1103.06C1105.34 3.29985 1106.97 3.9006 1108.11 4.97756C1109.36 6.15884 1110.16 7.49199 1110.54 8.97072L1110.55 9.00881L1110.56 9.04689L1161.19 156.294L1161.21 156.347L1161.23 156.396C1161.45 156.855 1161.56 157.396 1161.56 158.03C1161.56 158.97 1161.21 159.842 1160.43 160.668C1159.67 161.472 1158.82 161.842 1157.81 161.842H1131.19C1129.2 161.842 1127.88 161.317 1127.05 160.437C1126.02 159.338 1125.45 158.438 1125.23 157.727L1125.22 157.705L1125.21 157.686L1116.77 134.291L1116.53 133.631H1057.35L1057.11 134.299L1048.89 157.693L1048.88 157.725C1048.65 158.451 1048.1 159.365 1047.14 160.461C1046.41 161.292 1045.03 161.842 1042.7 161.842H1016.08C1015.24 161.842 1014.45 161.499 1013.67 160.67L1013.67 160.668C1012.88 159.837 1012.54 158.971 1012.54 158.03C1012.54 157.342 1012.6 156.749 1012.72 156.244L1063.55 9.04787L1063.56 9.00978L1063.57 8.96974C1063.95 7.486 1064.75 6.15878 1065.99 4.97658C1067.13 3.90135 1068.76 3.29982 1071.04 3.29982ZM1086.09 40.7344L1065.97 101.286L1065.53 102.602H1108.55L1108.12 101.286L1087.99 40.7344L1087.04 37.8789L1086.09 40.7344Z" stroke="url(#paint15_linear_0_59)" stroke-opacity="0.1" stroke-width="2"/>
</g>
<g id="Vector_9">
<path d="M1185.06 162.848C1183.47 162.848 1182.17 162.275 1181.16 161.129C1180.15 159.982 1179.65 158.646 1179.65 157.116V8.03239C1179.65 6.34921 1180.16 4.97705 1181.16 3.90371C1182.17 2.83648 1183.47 2.29982 1185.06 2.29982H1284.59C1286.18 2.29982 1287.47 2.83648 1288.49 3.90371C1289.49 4.97705 1290 6.34921 1290 8.03239V31.1944C1290 32.8776 1289.49 34.2558 1288.49 35.3231C1287.47 36.3964 1286.18 36.927 1284.59 36.927H1217.73V70.6455H1280.26C1281.85 70.6455 1283.15 71.2187 1284.16 72.3652C1285.17 73.5117 1285.67 74.9266 1285.67 76.6098V99.5461C1285.67 101.077 1285.17 102.412 1284.16 103.559C1283.15 104.705 1281.85 105.279 1280.26 105.279H1217.73V157.116C1217.73 158.646 1217.23 159.982 1216.22 161.129C1215.21 162.275 1213.91 162.848 1212.32 162.848H1185.06Z" fill="url(#paint16_linear_0_59)"/>
<path d="M1185.06 3.29982H1284.59C1285.92 3.29982 1286.95 3.73688 1287.76 4.58693V4.58791C1288.57 5.45062 1289 6.56646 1289 8.03224V31.1944C1289 32.6619 1288.56 33.782 1287.76 34.6367C1286.95 35.4922 1285.93 35.9268 1284.59 35.9268H1216.73V71.6455H1280.26C1281.57 71.6455 1282.59 72.1028 1283.41 73.0244V73.0254C1284.24 73.971 1284.67 75.1436 1284.67 76.6094V99.5459C1284.67 100.832 1284.26 101.932 1283.41 102.897C1282.59 103.82 1281.58 104.278 1280.26 104.278H1216.73V157.116C1216.73 158.402 1216.32 159.503 1215.47 160.467C1214.65 161.39 1213.64 161.849 1212.32 161.849H1185.06C1183.75 161.849 1182.72 161.389 1181.92 160.469L1181.91 160.467L1181.76 160.284C1181.01 159.366 1180.65 158.325 1180.65 157.116V8.03224C1180.65 6.56663 1181.08 5.45064 1181.89 4.58791L1181.89 4.58693C1182.69 3.73824 1183.72 3.29982 1185.06 3.29982Z" stroke="url(#paint17_linear_0_59)" stroke-opacity="0.1" stroke-width="2"/>
</g>
<g id="Vector_10">
<path d="M1352.1 162.842C1350.51 162.842 1349.21 162.269 1348.21 161.122C1347.19 159.976 1346.69 158.64 1346.69 157.11V38.3052H1308.18C1306.59 38.3052 1305.29 37.732 1304.29 36.5855C1303.27 35.4389 1302.77 34.1034 1302.77 32.5727V8.0324C1302.77 6.34922 1303.28 4.97706 1304.29 3.90372C1305.29 2.83649 1306.59 2.29982 1308.18 2.29982H1424.59C1426.18 2.29982 1427.47 2.83649 1428.49 3.90372C1429.49 4.97706 1430 6.34922 1430 8.0324V32.5727C1430 34.1034 1429.49 35.4389 1428.49 36.5855C1427.47 37.732 1426.18 38.3052 1424.59 38.3052H1386.08V157.11C1386.08 158.64 1385.57 159.976 1384.57 161.122C1383.55 162.269 1382.26 162.842 1380.67 162.842H1352.11H1352.1Z" fill="url(#paint18_linear_0_59)"/>
<path d="M1308.18 3.29982H1424.59C1425.92 3.29982 1426.95 3.73689 1427.76 4.58693V4.58791C1428.57 5.45066 1429 6.56653 1429 8.03224V32.5723C1429 33.8583 1428.58 34.9594 1427.74 35.9238C1426.92 36.8469 1425.9 37.3057 1424.59 37.3057H1385.08V157.109C1385.08 158.396 1384.66 159.497 1383.82 160.461C1383 161.384 1381.98 161.842 1380.67 161.842H1352.1C1350.79 161.842 1349.77 161.383 1348.96 160.463L1348.96 160.461L1348.8 160.278C1348.06 159.36 1347.69 158.318 1347.69 157.109V37.3057H1308.18C1306.87 37.3057 1305.85 36.8457 1305.04 35.9258L1305.04 35.9238L1304.88 35.7412C1304.14 34.8231 1303.77 33.7808 1303.77 32.5723V8.03224C1303.77 6.56663 1304.21 5.45063 1305.02 4.58791L1305.01 4.58693C1305.82 3.73824 1306.85 3.29982 1308.18 3.29982Z" stroke="url(#paint19_linear_0_59)" stroke-opacity="0.1" stroke-width="2"/>
</g>
</g>
<defs>
<linearGradient id="paint0_linear_0_59" x1="-0.287966" y1="40.8975" x2="-5.17512" y2="159.372" gradientUnits="userSpaceOnUse">
<stop stop-color="white" stop-opacity="0.05"/>
<stop offset="1" stop-color="white" stop-opacity="0"/>
</linearGradient>
<linearGradient id="paint1_linear_0_59" x1="11.2654" y1="9.8389" x2="69.8482" y2="264.407" gradientUnits="userSpaceOnUse">
<stop stop-color="white"/>
<stop offset="0.523268" stop-color="white" stop-opacity="0"/>
</linearGradient>
<linearGradient id="paint2_linear_0_59" x1="147.045" y1="40.887" x2="142.285" y2="159.377" gradientUnits="userSpaceOnUse">
<stop stop-color="white" stop-opacity="0.05"/>
<stop offset="1" stop-color="white" stop-opacity="0"/>
</linearGradient>
<linearGradient id="paint3_linear_0_59" x1="158.908" y1="9.82726" x2="216.114" y2="265.066" gradientUnits="userSpaceOnUse">
<stop stop-color="white"/>
<stop offset="0.523268" stop-color="white" stop-opacity="0"/>
</linearGradient>
<linearGradient id="paint4_linear_0_59" x1="288.742" y1="42.0483" x2="284.743" y2="157.286" gradientUnits="userSpaceOnUse">
<stop stop-color="white" stop-opacity="0.05"/>
<stop offset="1" stop-color="white" stop-opacity="0"/>
</linearGradient>
<linearGradient id="paint5_linear_0_59" x1="302.094" y1="11.8534" x2="350.719" y2="263.036" gradientUnits="userSpaceOnUse">
<stop stop-color="white"/>
<stop offset="0.523268" stop-color="white" stop-opacity="0"/>
</linearGradient>
<linearGradient id="paint6_linear_0_59" x1="456.949" y1="42.0498" x2="451.482" y2="157.171" gradientUnits="userSpaceOnUse">
<stop stop-color="white" stop-opacity="0.05"/>
<stop offset="1" stop-color="white" stop-opacity="0"/>
</linearGradient>
<linearGradient id="paint7_linear_0_59" x1="466.705" y1="11.8538" x2="531.225" y2="255.364" gradientUnits="userSpaceOnUse">
<stop stop-color="white"/>
<stop offset="0.523268" stop-color="white" stop-opacity="0"/>
</linearGradient>
<linearGradient id="paint8_linear_0_59" x1="586.112" y1="42.0498" x2="580.8" y2="157.185" gradientUnits="userSpaceOnUse">
<stop stop-color="white" stop-opacity="0.05"/>
<stop offset="1" stop-color="white" stop-opacity="0"/>
</linearGradient>
<linearGradient id="paint9_linear_0_59" x1="596.155" y1="11.8538" x2="659.064" y2="256.267" gradientUnits="userSpaceOnUse">
<stop stop-color="white"/>
<stop offset="0.523268" stop-color="white" stop-opacity="0"/>
</linearGradient>
<linearGradient id="paint10_linear_0_59" x1="718.046" y1="40.887" x2="713.285" y2="159.377" gradientUnits="userSpaceOnUse">
<stop stop-color="white" stop-opacity="0.05"/>
<stop offset="1" stop-color="white" stop-opacity="0"/>
</linearGradient>
<linearGradient id="paint11_linear_0_59" x1="729.909" y1="9.82726" x2="787.114" y2="265.066" gradientUnits="userSpaceOnUse">
<stop stop-color="white"/>
<stop offset="0.523268" stop-color="white" stop-opacity="0"/>
</linearGradient>
<linearGradient id="paint12_linear_0_59" x1="874.938" y1="42.0498" x2="870.217" y2="157.237" gradientUnits="userSpaceOnUse">
<stop stop-color="white" stop-opacity="0.05"/>
<stop offset="1" stop-color="white" stop-opacity="0"/>
</linearGradient>
<linearGradient id="paint13_linear_0_59" x1="886.244" y1="11.8538" x2="942.87" y2="259.512" gradientUnits="userSpaceOnUse">
<stop stop-color="white"/>
<stop offset="0.523268" stop-color="white" stop-opacity="0"/>
</linearGradient>
<linearGradient id="paint14_linear_0_59" x1="1011.2" y1="42.0483" x2="1007.21" y2="157.286" gradientUnits="userSpaceOnUse">
<stop stop-color="white" stop-opacity="0.05"/>
<stop offset="1" stop-color="white" stop-opacity="0"/>
</linearGradient>
<linearGradient id="paint15_linear_0_59" x1="1024.56" y1="11.8534" x2="1073.18" y2="263.036" gradientUnits="userSpaceOnUse">
<stop stop-color="white"/>
<stop offset="0.523268" stop-color="white" stop-opacity="0"/>
</linearGradient>
<linearGradient id="paint16_linear_0_59" x1="1179.41" y1="42.0498" x2="1173.94" y2="157.171" gradientUnits="userSpaceOnUse">
<stop stop-color="white" stop-opacity="0.05"/>
<stop offset="1" stop-color="white" stop-opacity="0"/>
</linearGradient>
<linearGradient id="paint17_linear_0_59" x1="1189.16" y1="11.8538" x2="1253.68" y2="255.364" gradientUnits="userSpaceOnUse">
<stop stop-color="white"/>
<stop offset="0.523268" stop-color="white" stop-opacity="0"/>
</linearGradient>
<linearGradient id="paint18_linear_0_59" x1="1302.49" y1="42.0483" x2="1297.75" y2="157.229" gradientUnits="userSpaceOnUse">
<stop stop-color="white" stop-opacity="0.05"/>
<stop offset="1" stop-color="white" stop-opacity="0"/>
</linearGradient>
<linearGradient id="paint19_linear_0_59" x1="1313.74" y1="11.8534" x2="1370.62" y2="259.378" gradientUnits="userSpaceOnUse">
<stop stop-color="white"/>
<stop offset="0.523268" stop-color="white" stop-opacity="0"/>
</linearGradient>
</defs>
</svg>
