<svg width="1452" height="770" viewBox="0 0 1452 770" fill="none" xmlns="http://www.w3.org/2000/svg">
<rect width="1452" height="770" fill="#F0F1FF"/>
<g filter="url(#filter0_f)">
<ellipse cx="667.5" cy="613.5" rx="667.5" ry="613.5" transform="matrix(-1 0 0 1 1392.76 -258.463)" fill="url(#paint0_linear)"/>
</g>
<path d="M928.195 121H1052.64C1059.89 121 1066.81 123.99 1071.83 129.28L1252.65 319.839C1262.85 330.584 1262.54 347.668 1251.96 358.026L1064.47 541.667C1047.82 557.969 1038.41 580.444 1038.41 603.912V635.77C1038.41 642.936 1035.6 649.808 1030.61 654.877L953.478 733.128C936.692 750.157 908 738.096 908 714.021V558.999C908 551.833 910.811 544.961 915.799 539.892L1093.94 359.176C1104.24 348.725 1104.36 331.817 1094.2 321.228L920.351 139.831C913.613 132.794 918.519 121 928.195 121Z" fill="white" fill-opacity="0.2"/>
<path d="M1069.41 606.097V713.639C1069.41 730.833 1089.9 739.444 1101.89 727.291L1451.97 372.143C1463.94 360 1455.49 339.227 1438.55 339.19L1311.29 338.951C1306.33 338.942 1301.56 340.902 1298 344.407L1095.3 544.018C1078.75 560.311 1069.41 582.711 1069.41 606.106L1069.41 606.097Z" fill="white" fill-opacity="0.2"/>
<defs>
<filter id="filter0_f" x="-122.732" y="-438.951" width="1695.98" height="1587.98" filterUnits="userSpaceOnUse" color-interpolation-filters="sRGB">
<feFlood flood-opacity="0" result="BackgroundImageFix"/>
<feBlend mode="normal" in="SourceGraphic" in2="BackgroundImageFix" result="shape"/>
<feGaussianBlur stdDeviation="90.2439" result="effect1_foregroundBlur"/>
</filter>
<linearGradient id="paint0_linear" x1="667.5" y1="0" x2="667.5" y2="1227" gradientUnits="userSpaceOnUse">
<stop stop-color="#FFA200" stop-opacity="0"/>
<stop offset="1" stop-color="#FF5858"/>
</linearGradient>
</defs>
</svg>
