<svg preserveAspectRatio="none" width="100%" height="100%" overflow="visible" style="display: block;" viewBox="0 0 59 52" fill="none" xmlns="http://www.w3.org/2000/svg">
<g id="icon 1">
<g id="Vector" filter="url(#filter0_d_0_19)">
<path d="M46.9147 9.64392H18.641C14.1756 9.64392 10.5557 13.146 10.5557 17.4661V36.0014C10.5557 40.3215 14.1756 43.8236 18.641 43.8236H46.9147C51.3802 43.8236 55.0001 40.3215 55.0001 36.0014V17.4661C55.0001 13.146 51.3802 9.64392 46.9147 9.64392Z" fill="url(#paint0_linear_0_19)"/>
</g>
<g id="Vector_2" filter="url(#filter1_bdi_0_19)">
<path d="M41.3591 9.31897H13.0854C8.61995 9.31897 5 12.8544 5 17.2155V35.927C5 40.2882 8.61995 43.8236 13.0854 43.8236H41.3591C45.8245 43.8236 49.4444 40.2882 49.4444 35.927V17.2155C49.4444 12.8544 45.8245 9.31897 41.3591 9.31897Z" fill="var(--fill-0, #F1F1F1)" fill-opacity="0.1" shape-rendering="crispEdges"/>
<path d="M41.3591 9.31897H13.0854C8.61995 9.31897 5 12.8544 5 17.2155V35.927C5 40.2882 8.61995 43.8236 13.0854 43.8236H41.3591C45.8245 43.8236 49.4444 40.2882 49.4444 35.927V17.2155C49.4444 12.8544 45.8245 9.31897 41.3591 9.31897Z" fill="url(#paint1_linear_0_19)" fill-opacity="0.1" shape-rendering="crispEdges"/>
<path d="M13.085 9.61877H41.3594C45.6657 9.61894 49.1445 13.0268 49.1445 17.2155V35.9274C49.1443 40.1159 45.6656 43.5239 41.3594 43.524H13.085C8.77881 43.5238 5.3 40.1159 5.2998 35.9274V17.2155C5.29986 13.0268 8.77872 9.61899 13.085 9.61877Z" stroke="url(#paint2_linear_0_19)" stroke-opacity="0.1" stroke-width="0.6" shape-rendering="crispEdges"/>
</g>
<path id="Vector_3" d="M41.3465 11.6487C41.0983 11.652 40.8518 11.6067 40.6218 11.5154C40.3918 11.4242 40.1829 11.2888 40.0073 11.1174C39.8318 10.9459 39.6932 10.7418 39.5997 10.5172C39.5063 10.2925 39.4599 10.0519 39.4633 9.80942C39.4566 8.20067 38.7976 6.66003 37.6305 5.52476C36.4634 4.38949 34.8833 3.75212 33.236 3.75214H26.0797C24.4368 3.75859 22.8631 4.39883 21.7015 5.5334C20.5398 6.66797 19.8842 8.20491 19.8776 9.80942C19.8776 10.2972 19.6792 10.7651 19.326 11.11C18.9728 11.4549 18.4938 11.6487 17.9943 11.6487C17.4949 11.6487 17.0158 11.4549 16.6627 11.11C16.3095 10.7651 16.1111 10.2972 16.1111 9.80942C16.1111 7.2078 17.1693 4.71276 19.0529 2.87314C20.9365 1.03352 23.4912 0 26.155 0H33.3114C35.9752 0 38.5299 1.03352 40.4135 2.87314C42.2971 4.71276 43.3553 7.2078 43.3553 9.80942C43.3559 10.0616 43.3033 10.3113 43.2009 10.5428C43.0985 10.7743 42.9485 10.9828 42.7601 11.1553C42.5717 11.3278 42.349 11.4606 42.1058 11.5455C41.8626 11.6304 41.6042 11.6655 41.3465 11.6487V11.6487Z" fill="url(#paint3_linear_0_19)"/>
<g id="Vector_4" filter="url(#filter2_bi_0_19)">
<path d="M41.3591 9.31897H13.0854C8.61995 9.31897 5 12.8544 5 17.2155V21.1393C5 25.5005 8.61995 29.0359 13.0854 29.0359H41.3591C45.8245 29.0359 49.4444 25.5005 49.4444 21.1393V17.2155C49.4444 12.8544 45.8245 9.31897 41.3591 9.31897Z" fill="var(--fill-0, #F1F1F1)" fill-opacity="0.1"/>
<path d="M41.3591 9.31897H13.0854C8.61995 9.31897 5 12.8544 5 17.2155V21.1393C5 25.5005 8.61995 29.0359 13.0854 29.0359H41.3591C45.8245 29.0359 49.4444 25.5005 49.4444 21.1393V17.2155C49.4444 12.8544 45.8245 9.31897 41.3591 9.31897Z" fill="url(#paint4_linear_0_19)" fill-opacity="0.1"/>
<path d="M13.085 9.61877H41.3594C45.6657 9.61894 49.1445 13.0268 49.1445 17.2155V21.1393C49.1445 25.328 45.6657 28.7358 41.3594 28.736H13.085C8.77869 28.7357 5.2998 25.328 5.2998 21.1393V17.2155C5.29986 13.0268 8.77872 9.61899 13.085 9.61877Z" stroke="url(#paint5_linear_0_19)" stroke-opacity="0.1" stroke-width="0.6"/>
</g>
<g id="Vector_5" filter="url(#filter3_bi_0_19)">
<path d="M41.3591 9.31897H13.0854C8.61995 9.31897 5 12.8544 5 17.2155V21.1393C5 25.5005 8.61995 29.0359 13.0854 29.0359H41.3591C45.8245 29.0359 49.4444 25.5005 49.4444 21.1393V17.2155C49.4444 12.8544 45.8245 9.31897 41.3591 9.31897Z" fill="var(--fill-0, #F1F1F1)" fill-opacity="0.1"/>
<path d="M41.3591 9.31897H13.0854C8.61995 9.31897 5 12.8544 5 17.2155V21.1393C5 25.5005 8.61995 29.0359 13.0854 29.0359H41.3591C45.8245 29.0359 49.4444 25.5005 49.4444 21.1393V17.2155C49.4444 12.8544 45.8245 9.31897 41.3591 9.31897Z" fill="url(#paint6_linear_0_19)" fill-opacity="0.1"/>
<path d="M13.085 9.61877H41.3594C45.6657 9.61894 49.1445 13.0268 49.1445 17.2155V21.1393C49.1445 25.328 45.6657 28.7358 41.3594 28.736H13.085C8.77869 28.7357 5.2998 25.328 5.2998 21.1393V17.2155C5.29986 13.0268 8.77872 9.61899 13.085 9.61877Z" stroke="url(#paint7_linear_0_19)" stroke-opacity="0.1" stroke-width="0.6"/>
</g>
<g id="Vector_6" filter="url(#filter4_bd_0_19)">
<path d="M30.5619 26.0685H23.8827C23.1893 26.0685 22.6272 26.6175 22.6272 27.2947V30.8015C22.6272 31.4787 23.1893 32.0277 23.8827 32.0277H30.5619C31.2553 32.0277 31.8174 31.4787 31.8174 30.8015V27.2947C31.8174 26.6175 31.2553 26.0685 30.5619 26.0685Z" fill="url(#paint8_linear_0_19)"/>
<path d="M23.8831 26.1866H30.5618C31.1926 26.1866 31.6995 26.6857 31.6995 27.295V30.8019C31.6993 31.4111 31.1924 31.9093 30.5618 31.9093H23.8831C23.2524 31.9093 22.7456 31.4111 22.7454 30.8019V27.295C22.7454 26.6857 23.2523 26.1866 23.8831 26.1866Z" stroke="url(#paint9_linear_0_19)" stroke-opacity="0.5" stroke-width="0.236249"/>
</g>
</g>
<defs>
<filter id="filter0_d_0_19" x="6.55566" y="9.64392" width="52.4444" height="42.1797" filterUnits="userSpaceOnUse" color-interpolation-filters="sRGB">
<feFlood flood-opacity="0" result="BackgroundImageFix"/>
<feColorMatrix in="SourceAlpha" type="matrix" values="0 0 0 0 0 0 0 0 0 0 0 0 0 0 0 0 0 0 127 0" result="hardAlpha"/>
<feOffset dy="4"/>
<feGaussianBlur stdDeviation="2"/>
<feComposite in2="hardAlpha" operator="out"/>
<feColorMatrix type="matrix" values="0 0 0 0 0 0 0 0 0 0 0 0 0 0 0 0 0 0 0.15 0"/>
<feBlend mode="normal" in2="BackgroundImageFix" result="effect1_dropShadow_0_19"/>
<feBlend mode="normal" in="SourceGraphic" in2="effect1_dropShadow_0_19" result="shape"/>
</filter>
<filter id="filter1_bdi_0_19" x="-4.75" y="-0.43103" width="63.9444" height="54.0046" filterUnits="userSpaceOnUse" color-interpolation-filters="sRGB">
<feFlood flood-opacity="0" result="BackgroundImageFix"/>
<feGaussianBlur in="BackgroundImageFix" stdDeviation="4.875"/>
<feComposite in2="SourceAlpha" operator="in" result="effect1_backgroundBlur_0_19"/>
<feColorMatrix in="SourceAlpha" type="matrix" values="0 0 0 0 0 0 0 0 0 0 0 0 0 0 0 0 0 0 127 0" result="hardAlpha"/>
<feOffset dx="-1" dy="-1"/>
<feGaussianBlur stdDeviation="2"/>
<feComposite in2="hardAlpha" operator="out"/>
<feColorMatrix type="matrix" values="0 0 0 0 0 0 0 0 0 0 0 0 0 0 0 0 0 0 0.05 0"/>
<feBlend mode="normal" in2="effect1_backgroundBlur_0_19" result="effect2_dropShadow_0_19"/>
<feBlend mode="normal" in="SourceGraphic" in2="effect2_dropShadow_0_19" result="shape"/>
<feColorMatrix in="SourceAlpha" type="matrix" values="0 0 0 0 0 0 0 0 0 0 0 0 0 0 0 0 0 0 127 0" result="hardAlpha"/>
<feOffset dy="1.625"/>
<feGaussianBlur stdDeviation="3.25"/>
<feComposite in2="hardAlpha" operator="arithmetic" k2="-1" k3="1"/>
<feColorMatrix type="matrix" values="0 0 0 0 1 0 0 0 0 1 0 0 0 0 1 0 0 0 0.4 0"/>
<feBlend mode="normal" in2="shape" result="effect3_innerShadow_0_19"/>
</filter>
<filter id="filter2_bi_0_19" x="-4.75" y="-0.43103" width="63.9444" height="39.2169" filterUnits="userSpaceOnUse" color-interpolation-filters="sRGB">
<feFlood flood-opacity="0" result="BackgroundImageFix"/>
<feGaussianBlur in="BackgroundImageFix" stdDeviation="4.875"/>
<feComposite in2="SourceAlpha" operator="in" result="effect1_backgroundBlur_0_19"/>
<feBlend mode="normal" in="SourceGraphic" in2="effect1_backgroundBlur_0_19" result="shape"/>
<feColorMatrix in="SourceAlpha" type="matrix" values="0 0 0 0 0 0 0 0 0 0 0 0 0 0 0 0 0 0 127 0" result="hardAlpha"/>
<feOffset dy="1.625"/>
<feGaussianBlur stdDeviation="3.25"/>
<feComposite in2="hardAlpha" operator="arithmetic" k2="-1" k3="1"/>
<feColorMatrix type="matrix" values="0 0 0 0 1 0 0 0 0 1 0 0 0 0 1 0 0 0 0.4 0"/>
<feBlend mode="normal" in2="shape" result="effect2_innerShadow_0_19"/>
</filter>
<filter id="filter3_bi_0_19" x="-4.75" y="-0.43103" width="63.9444" height="39.2169" filterUnits="userSpaceOnUse" color-interpolation-filters="sRGB">
<feFlood flood-opacity="0" result="BackgroundImageFix"/>
<feGaussianBlur in="BackgroundImageFix" stdDeviation="4.875"/>
<feComposite in2="SourceAlpha" operator="in" result="effect1_backgroundBlur_0_19"/>
<feBlend mode="normal" in="SourceGraphic" in2="effect1_backgroundBlur_0_19" result="shape"/>
<feColorMatrix in="SourceAlpha" type="matrix" values="0 0 0 0 0 0 0 0 0 0 0 0 0 0 0 0 0 0 127 0" result="hardAlpha"/>
<feOffset dy="1.625"/>
<feGaussianBlur stdDeviation="3.25"/>
<feComposite in2="hardAlpha" operator="arithmetic" k2="-1" k3="1"/>
<feColorMatrix type="matrix" values="0 0 0 0 1 0 0 0 0 1 0 0 0 0 1 0 0 0 0.4 0"/>
<feBlend mode="normal" in2="shape" result="effect2_innerShadow_0_19"/>
</filter>
<filter id="filter4_bd_0_19" x="4.90849" y="8.34977" width="44.6276" height="41.3966" filterUnits="userSpaceOnUse" color-interpolation-filters="sRGB">
<feFlood flood-opacity="0" result="BackgroundImageFix"/>
<feGaussianBlur in="BackgroundImageFix" stdDeviation="8.85935"/>
<feComposite in2="SourceAlpha" operator="in" result="effect1_backgroundBlur_0_19"/>
<feColorMatrix in="SourceAlpha" type="matrix" values="0 0 0 0 0 0 0 0 0 0 0 0 0 0 0 0 0 0 127 0" result="hardAlpha"/>
<feOffset dx="-1.5" dy="1.5"/>
<feGaussianBlur stdDeviation="2.5"/>
<feColorMatrix type="matrix" values="0 0 0 0 0.15375 0 0 0 0 0.522433 0 0 0 0 0.9 0 0 0 0.3 0"/>
<feBlend mode="normal" in2="effect1_backgroundBlur_0_19" result="effect2_dropShadow_0_19"/>
<feBlend mode="normal" in="SourceGraphic" in2="effect2_dropShadow_0_19" result="shape"/>
</filter>
<linearGradient id="paint0_linear_0_19" x1="12.4075" y1="16.4799" x2="60.2304" y2="25.1167" gradientUnits="userSpaceOnUse">
<stop stop-color="#7FFBE5"/>
<stop offset="1" stop-color="#84BEFA"/>
</linearGradient>
<linearGradient id="paint1_linear_0_19" x1="5" y1="9.19521" x2="51.6555" y2="40.0118" gradientUnits="userSpaceOnUse">
<stop stop-color="#7FFBE5"/>
<stop offset="1" stop-color="#84BEFA"/>
</linearGradient>
<linearGradient id="paint2_linear_0_19" x1="6.38889" y1="10.8874" x2="49.4444" y2="10.8874" gradientUnits="userSpaceOnUse">
<stop stop-color="#7FFBE5"/>
<stop offset="1" stop-color="#84BEFA"/>
</linearGradient>
<linearGradient id="paint3_linear_0_19" x1="17.2463" y1="2.33056" x2="44.6301" y2="11.2227" gradientUnits="userSpaceOnUse">
<stop stop-color="#7FFBE5"/>
<stop offset="1" stop-color="#84BEFA"/>
</linearGradient>
<linearGradient id="paint4_linear_0_19" x1="5" y1="9.24825" x2="33.6847" y2="42.4048" gradientUnits="userSpaceOnUse">
<stop stop-color="#7FFBE5"/>
<stop offset="1" stop-color="#84BEFA"/>
</linearGradient>
<linearGradient id="paint5_linear_0_19" x1="6.38889" y1="10.2152" x2="49.4444" y2="10.2152" gradientUnits="userSpaceOnUse">
<stop stop-color="#7FFBE5"/>
<stop offset="1" stop-color="#84BEFA"/>
</linearGradient>
<linearGradient id="paint6_linear_0_19" x1="5" y1="9.24825" x2="33.6847" y2="42.4048" gradientUnits="userSpaceOnUse">
<stop stop-color="#7FFBE5"/>
<stop offset="1" stop-color="#84BEFA"/>
</linearGradient>
<linearGradient id="paint7_linear_0_19" x1="6.38889" y1="10.2152" x2="49.4444" y2="10.2152" gradientUnits="userSpaceOnUse">
<stop stop-color="#7FFBE5"/>
<stop offset="1" stop-color="#84BEFA"/>
</linearGradient>
<linearGradient id="paint8_linear_0_19" x1="31.1658" y1="27.1446" x2="20.9438" y2="27.6586" gradientUnits="userSpaceOnUse">
<stop stop-color="white"/>
<stop offset="1" stop-color="white" stop-opacity="0.2"/>
</linearGradient>
<linearGradient id="paint9_linear_0_19" x1="23.6172" y1="28.0675" x2="31.4206" y2="28.1339" gradientUnits="userSpaceOnUse">
<stop stop-color="white"/>
<stop offset="1" stop-color="white" stop-opacity="0"/>
</linearGradient>
</defs>
</svg>
