<svg preserveAspectRatio="none" width="100%" height="100%" overflow="visible" style="display: block;" viewBox="0 0 121 14" fill="none" xmlns="http://www.w3.org/2000/svg">
<g id="Group">
<path id="Vector" d="M5.52078 13.2574C4.3022 13.2574 3.29069 13.0826 2.48625 12.7325C1.68181 12.3825 1.07228 11.9257 0.658148 11.3608C0.243532 10.7963 0.0243159 10.1946 1.25173e-05 9.5562C1.25173e-05 9.45829 0.0393842 9.36919 0.118613 9.28939C0.197843 9.20959 0.292138 9.16993 0.401989 9.16993H2.70547C2.87608 9.16993 3.00732 9.20077 3.0987 9.26197C3.19008 9.32366 3.27222 9.40346 3.34562 9.50137C3.44283 9.68545 3.57991 9.86365 3.75684 10.0355C3.93328 10.2073 4.16805 10.3454 4.46066 10.4497C4.75328 10.5539 5.10665 10.6063 5.52078 10.6063C6.22752 10.6063 6.76074 10.4957 7.12043 10.2749C7.47964 10.0541 7.65948 9.7535 7.65948 9.37261C7.65948 9.09062 7.56178 8.86346 7.36687 8.69113C7.17195 8.51929 6.85795 8.36263 6.42535 8.22163C5.99275 8.08064 5.41676 7.93621 4.69786 7.78885C3.77142 7.59253 2.98253 7.33796 2.33071 7.02463C1.6784 6.7118 1.18213 6.30056 0.840911 5.79091C0.49969 5.28176 0.329079 4.6463 0.329079 3.8855C0.329079 3.12471 0.539062 2.46771 0.959511 1.87875C1.37996 1.2898 1.96762 0.829115 2.72345 0.497676C3.4788 0.166236 4.37463 0.000761149 5.41044 0.000761149C6.25134 0.000761149 6.99162 0.111404 7.63129 0.332201C8.27096 0.552997 8.81049 0.847719 9.24892 1.21588C9.68736 1.58403 10.0193 1.97373 10.2454 2.38497C10.4709 2.79621 10.5895 3.19815 10.6017 3.59078C10.6017 3.68919 10.5681 3.77829 10.501 3.8576C10.434 3.9374 10.3392 3.97705 10.2177 3.97705H7.80482C7.67066 3.97705 7.55498 3.95258 7.45728 3.90362C7.35958 3.85466 7.27451 3.77486 7.2016 3.66422C7.12869 3.39447 6.9367 3.158 6.62561 2.95532C6.31502 2.75264 5.90963 2.6513 5.40996 2.6513C4.87334 2.6513 4.45629 2.74676 4.15784 2.93672C3.85891 3.12716 3.71017 3.41845 3.71017 3.81109C3.71017 4.05686 3.79232 4.27129 3.9571 4.45537C4.12139 4.63944 4.39601 4.79904 4.77952 4.93417C5.16352 5.06929 5.69042 5.21028 6.36071 5.35764C7.46943 5.56669 8.36525 5.82714 9.04769 6.13998C9.73013 6.45281 10.2327 6.85818 10.556 7.35509C10.8787 7.85201 11.0406 8.47523 11.0406 9.22378C11.0406 10.0585 10.8029 10.7767 10.3275 11.3779C9.85214 11.9796 9.20323 12.4427 8.38081 12.7683C7.55838 13.0934 6.60423 13.2564 5.51981 13.2564L5.52078 13.2574Z" fill="var(--fill-0, black)"/>
<path id="Vector_2" d="M18.1157 13.2571C16.9701 13.2571 15.9829 13.0671 15.1541 12.6862C14.3254 12.3058 13.6828 11.7472 13.2254 11.0109C12.7685 10.2746 12.5153 9.3601 12.4667 8.26738C12.4545 7.7641 12.4482 7.2241 12.4482 6.6469C12.4482 6.06969 12.454 5.51795 12.4667 4.9897C12.5153 3.92195 12.7709 3.0133 13.2346 2.26475C13.6979 1.5162 14.3434 0.951232 15.1726 0.570836C16.0013 0.190439 16.9822 -3.80319e-06 18.1157 -3.80319e-06C18.9202 -3.80319e-06 19.6634 0.101338 20.3458 0.30402C21.0283 0.506702 21.6256 0.800934 22.1375 1.18769C22.6493 1.57446 23.0484 2.04102 23.3347 2.58689C23.621 3.13325 23.7702 3.75011 23.7823 4.43746C23.7945 4.54811 23.7609 4.64015 23.6817 4.71358C23.6025 4.78702 23.5082 4.82423 23.3983 4.82423H20.9306C20.7721 4.82423 20.6501 4.79044 20.565 4.72288C20.4795 4.65532 20.4066 4.5295 20.3458 4.34542C20.1752 3.69479 19.8982 3.24977 19.5142 3.01037C19.1302 2.77097 18.6577 2.65151 18.0973 2.65151C17.427 2.65151 16.8967 2.83902 16.5069 3.21305C16.1165 3.58757 15.9036 4.2103 15.8672 5.08174C15.8307 6.0883 15.8307 7.11933 15.8672 8.17485C15.9036 9.04628 16.117 9.66951 16.5069 10.0435C16.8967 10.4181 17.427 10.6051 18.0973 10.6051C18.6577 10.6051 19.1331 10.4827 19.5229 10.2369C19.9127 9.99164 20.1869 9.54956 20.3453 8.91116C20.3939 8.72708 20.4639 8.60126 20.5558 8.5337C20.6472 8.46614 20.7721 8.43236 20.9306 8.43236H23.3983C23.5082 8.43236 23.6025 8.46908 23.6817 8.543C23.7609 8.61644 23.7945 8.70848 23.7823 8.81912C23.7702 9.50648 23.6205 10.1233 23.3347 10.6697C23.0484 11.2161 22.6493 11.6821 22.1375 12.0689C21.6256 12.4557 21.0283 12.7504 20.3458 12.9526C19.6634 13.1552 18.9202 13.2566 18.1157 13.2566V13.2571Z" fill="var(--fill-0, black)"/>
<path id="Vector_3" d="M24.8064 13.073C24.7087 13.073 24.6203 13.0333 24.5415 12.9535C24.4623 12.8737 24.4229 12.7851 24.4229 12.6867C24.4229 12.6255 24.4288 12.5702 24.4414 12.5213L28.7373 0.700572C28.7737 0.56545 28.85 0.445995 28.9657 0.341716C29.0814 0.237438 29.2428 0.185054 29.4503 0.185054H32.1558C32.3629 0.185054 32.5242 0.237438 32.6404 0.341716C32.7561 0.445995 32.8324 0.56594 32.8689 0.700572L37.1463 12.5213C37.1706 12.5702 37.1827 12.6255 37.1827 12.6867C37.1827 12.7851 37.1429 12.8742 37.0641 12.9535C36.9849 13.0333 36.8906 13.073 36.7807 13.073H34.5322C34.3494 13.073 34.2123 13.027 34.121 12.9349C34.0296 12.8429 33.9717 12.7602 33.9474 12.6862L33.2344 10.8082H28.3533L27.6587 12.6862C27.6339 12.7597 27.5795 12.8429 27.4944 12.9349C27.4088 13.027 27.2625 13.073 27.0555 13.073H24.8069H24.8064ZM29.1023 8.15673H32.5024L30.8021 3.29579L29.1018 8.15673H29.1023Z" fill="var(--fill-0, black)"/>
<path id="Vector_4" d="M39.0833 13.073C38.9491 13.073 38.8393 13.027 38.7542 12.9349C38.6686 12.8429 38.6264 12.7357 38.6264 12.6128V0.64476C38.6264 0.509638 38.6691 0.399485 38.7542 0.31332C38.8393 0.227645 38.9491 0.184564 39.0833 0.184564H41.4961C41.6303 0.184564 41.7396 0.227645 41.8252 0.31332C41.9102 0.399485 41.953 0.509638 41.953 0.64476V10.2927H47.4923C47.6264 10.2927 47.7358 10.3387 47.8213 10.4308C47.9064 10.5228 47.9492 10.6364 47.9492 10.7715V12.6128C47.9492 12.7357 47.9064 12.8429 47.8213 12.9349C47.7358 13.027 47.6264 13.073 47.4923 13.073H39.0833Z" fill="var(--fill-0, black)"/>
<path id="Vector_5" d="M49.9965 13.073C49.8623 13.073 49.7525 13.027 49.6674 12.9349C49.5819 12.8429 49.5396 12.7357 49.5396 12.6128V0.64476C49.5396 0.509638 49.5824 0.399485 49.6674 0.31332C49.7525 0.227645 49.8623 0.184564 49.9965 0.184564H58.5333C58.6675 0.184564 58.7768 0.227645 58.8624 0.31332C58.9474 0.399485 58.9902 0.509638 58.9902 0.64476V2.37539C58.9902 2.51051 58.9474 2.62116 58.8624 2.70683C58.7768 2.793 58.6675 2.83559 58.5333 2.83559H52.7019V5.32114H58.1313C58.2655 5.32114 58.3749 5.36716 58.4604 5.4592C58.5455 5.55124 58.5882 5.66482 58.5882 5.79994V7.40181C58.5882 7.5247 58.5455 7.63191 58.4604 7.72395C58.3749 7.81599 58.2655 7.86201 58.1313 7.86201H52.7019V10.4215H58.6796C58.8138 10.4215 58.9231 10.4646 59.0087 10.5502C59.0937 10.6364 59.1365 10.7466 59.1365 10.8817V12.6123C59.1365 12.7352 59.0937 12.8424 59.0087 12.9345C58.9231 13.0265 58.8138 13.0725 58.6796 13.0725H49.9965V13.073Z" fill="var(--fill-0, black)"/>
<path id="Vector_6" d="M66.3575 13.2571C65.2118 13.2571 64.2246 13.0671 63.3959 12.6862C62.5671 12.3058 61.9241 11.7472 61.4672 11.0109C61.0103 10.2746 60.757 9.3601 60.7084 8.26738C60.6963 7.7641 60.6899 7.2241 60.6899 6.6469C60.6899 6.06969 60.6958 5.51795 60.7084 4.9897C60.757 3.92195 61.0127 3.0133 61.4764 2.26475C61.9396 1.5162 62.5851 0.951232 63.4144 0.570836C64.2431 0.190439 65.224 -3.80319e-06 66.3575 -3.80319e-06C67.162 -3.80319e-06 67.9052 0.101338 68.5876 0.30402C69.27 0.506702 69.8674 0.800934 70.3792 1.18769C70.8911 1.57446 71.2901 2.04102 71.5764 2.58689C71.8627 3.13325 72.0119 3.75011 72.0241 4.43746C72.0363 4.54811 72.0027 4.64015 71.9235 4.71358C71.8443 4.78702 71.7499 4.82423 71.6401 4.82423H69.1723C69.0139 4.82423 68.8919 4.79044 68.8068 4.72288C68.7213 4.65532 68.6484 4.5295 68.5876 4.34542C68.417 3.69479 68.1399 3.24977 67.7559 3.01037C67.3719 2.77097 66.8995 2.65151 66.339 2.65151C65.6688 2.65151 65.1385 2.83902 64.7486 3.21305C64.3583 3.58757 64.1454 4.2103 64.109 5.08174C64.0725 6.0883 64.0725 7.11933 64.109 8.17485C64.1454 9.04628 64.3588 9.66951 64.7486 10.0435C65.1385 10.4181 65.6688 10.6051 66.339 10.6051C66.8995 10.6051 67.3748 10.4827 67.7647 10.2369C68.1545 9.99164 68.4287 9.54956 68.5871 8.91116C68.6357 8.72708 68.7057 8.60126 68.7971 8.5337C68.8885 8.46614 69.0134 8.43236 69.1719 8.43236H71.6396C71.7495 8.43236 71.8438 8.46908 71.923 8.543C72.0022 8.61644 72.0358 8.70848 72.0236 8.81912C72.0115 9.50648 71.8618 10.1233 71.5759 10.6697C71.2897 11.2161 70.8906 11.6821 70.3788 12.0689C69.8669 12.4557 69.2695 12.7504 68.5871 12.9526C67.9047 13.1552 67.1615 13.2566 66.357 13.2566L66.3575 13.2571Z" fill="var(--fill-0, black)"/>
<path id="Vector_7" d="M74.401 13.073C74.2669 13.073 74.157 13.027 74.072 12.9349C73.9864 12.8429 73.9441 12.7357 73.9441 12.6128V0.64476C73.9441 0.509638 73.9869 0.399485 74.072 0.31332C74.157 0.227645 74.2669 0.184564 74.401 0.184564H79.3735C80.9576 0.184564 82.2005 0.549783 83.1026 1.28022C84.0043 2.01066 84.4554 3.04513 84.4554 4.38263C84.4554 5.25456 84.2478 5.99087 83.8337 6.59206C83.4191 7.19375 82.8708 7.64807 82.1883 7.95454L84.6926 12.484C84.729 12.5575 84.7475 12.6255 84.7475 12.6867C84.7475 12.7851 84.7076 12.8742 84.6284 12.9535C84.5492 13.0329 84.4607 13.073 84.3635 13.073H81.9322C81.7003 13.073 81.5302 13.0147 81.4203 12.8982C81.3105 12.7817 81.2313 12.6745 81.1827 12.5761L79.0989 8.52538H77.2343V12.6128C77.2343 12.7357 77.1886 12.8429 77.0972 12.9349C77.0059 13.027 76.8931 13.073 76.7589 13.073H74.401ZM77.2343 5.91058H79.3366C79.9092 5.91058 80.3388 5.76959 80.6251 5.4871C80.9114 5.20511 81.0548 4.82422 81.0548 4.34542C81.0548 3.86662 80.9178 3.47986 80.6436 3.18563C80.3695 2.89091 79.9335 2.74355 79.3366 2.74355H77.2343V5.91058Z" fill="var(--fill-0, black)"/>
<path id="Vector_8" d="M85.8445 13.073C85.7468 13.073 85.6583 13.0333 85.5796 12.9535C85.5003 12.8737 85.461 12.7851 85.461 12.6867C85.461 12.6255 85.4668 12.5702 85.4795 12.5213L89.7753 0.700572C89.8118 0.56545 89.8881 0.445995 90.0038 0.341716C90.1195 0.237438 90.2808 0.185054 90.4884 0.185054H93.1938C93.4009 0.185054 93.5623 0.237438 93.6785 0.341716C93.7941 0.445995 93.8704 0.56594 93.9069 0.700572L98.1843 12.5213C98.2086 12.5702 98.2208 12.6255 98.2208 12.6867C98.2208 12.7851 98.1809 12.8742 98.1022 12.9535C98.0229 13.0333 97.9286 13.073 97.8188 13.073H95.5702C95.3875 13.073 95.2504 13.027 95.159 12.9349C95.0676 12.8429 95.0098 12.7602 94.9855 12.6862L94.2724 10.8082H89.3913L88.6967 12.6862C88.6724 12.7597 88.6175 12.8429 88.5324 12.9349C88.4469 13.027 88.3006 13.073 88.0935 13.073H85.845H85.8445ZM90.1404 8.15673H93.5404L91.8401 3.29579L90.1399 8.15673H90.1404Z" fill="var(--fill-0, black)"/>
<path id="Vector_9" d="M100.121 13.073C99.9872 13.073 99.8773 13.027 99.7922 12.9349C99.7067 12.8429 99.6644 12.7357 99.6644 12.6128V0.64476C99.6644 0.509638 99.7072 0.399485 99.7922 0.31332C99.8773 0.227645 99.9872 0.184564 100.121 0.184564H108.53C108.664 0.184564 108.774 0.227645 108.859 0.31332C108.944 0.399485 108.987 0.509638 108.987 0.64476V2.50415C108.987 2.63927 108.944 2.74991 108.859 2.83559C108.774 2.92175 108.664 2.96435 108.53 2.96435H102.882V5.67118H108.165C108.299 5.67118 108.408 5.7172 108.494 5.80924C108.579 5.90128 108.622 6.01486 108.622 6.14998V7.99126C108.622 8.11414 108.579 8.22136 108.494 8.3134C108.408 8.40543 108.299 8.45145 108.165 8.45145H102.882V12.6128C102.882 12.7357 102.839 12.8429 102.754 12.9349C102.668 13.027 102.559 13.073 102.425 13.073H100.121Z" fill="var(--fill-0, black)"/>
<path id="Vector_10" d="M114.234 13.073C114.1 13.073 113.99 13.027 113.905 12.9349C113.819 12.8429 113.777 12.7357 113.777 12.6128V3.07548H110.523C110.389 3.07548 110.279 3.02946 110.194 2.93742C110.109 2.84538 110.066 2.73816 110.066 2.61528V0.645251C110.066 0.510129 110.109 0.399975 110.194 0.313811C110.279 0.228136 110.389 0.185054 110.523 0.185054H120.358C120.492 0.185054 120.602 0.228136 120.687 0.313811C120.772 0.399975 120.815 0.510129 120.815 0.645251V2.61528C120.815 2.73816 120.772 2.84538 120.687 2.93742C120.602 3.02946 120.492 3.07548 120.358 3.07548H117.105V12.6128C117.105 12.7357 117.062 12.8429 116.977 12.9349C116.891 13.027 116.782 13.073 116.648 13.073H114.235H114.234Z" fill="var(--fill-0, black)"/>
</g>
</svg>
