<svg preserveAspectRatio="none" width="100%" height="100%" overflow="visible" style="display: block;" viewBox="0 0 30 33" fill="none" xmlns="http://www.w3.org/2000/svg">
<g id="Group">
<path id="Vector" d="M1.08247 0H7.75279C8.14116 0 8.51252 0.15911 8.78131 0.440614L18.4735 10.5816C19.0199 11.1534 19.0033 12.0625 18.4366 12.6138L8.38663 22.3866C7.4942 23.2541 6.99015 24.4501 6.99015 25.699V27.3944C6.99015 27.7758 6.83947 28.1415 6.57213 28.4113L2.43763 32.5755C1.53792 33.4817 0 32.8399 0 31.5587V23.3089C0 22.9276 0.150681 22.5619 0.418019 22.2921L9.96635 12.675C10.5185 12.1188 10.5248 11.219 9.98045 10.6555L0.662025 1.00215C0.300876 0.62763 0.56384 0 1.08247 0Z" fill="var(--fill-0, black)"/>
<path id="Vector_2" d="M8.65129 25.8156V31.5386C8.65129 32.4536 9.7498 32.9119 10.3924 32.2652L29.1571 13.3653C29.7987 12.719 29.3457 11.6136 28.4377 11.6116L21.6162 11.5989C21.3503 11.5984 21.0946 11.7027 20.9041 11.8892L10.039 22.5119C9.15194 23.379 8.65177 24.5711 8.65177 25.816L8.65129 25.8156Z" fill="var(--fill-0, black)"/>
</g>
</svg>
