<svg preserveAspectRatio="none" width="100%" height="100%" overflow="visible" style="display: block;" viewBox="0 0 24 24" fill="none" xmlns="http://www.w3.org/2000/svg">
<g id="SVG">
<path id="Vector" d="M22.8083 0H0.991667C0.396667 0 0 0.396667 0 0.991667V22.8083C0 23.4033 0.396667 23.8 0.991667 23.8H22.8083C23.4033 23.8 23.8 23.4033 23.8 22.8083V0.991667C23.8 0.396667 23.4033 0 22.8083 0ZM7.04083 20.3292H3.57V8.925H7.14V20.3292H7.04083ZM5.25583 7.33833C4.165 7.33833 3.17333 6.44583 3.17333 5.25583C3.17333 4.165 4.06583 3.17333 5.25583 3.17333C6.34667 3.17333 7.33833 4.06583 7.33833 5.25583C7.33833 6.44583 6.44583 7.33833 5.25583 7.33833ZM20.3292 20.3292H16.7592V14.7758C16.7592 13.4867 16.7592 11.8008 14.9742 11.8008C13.09 11.8008 12.8917 13.1892 12.8917 14.6767V20.3292H9.32167V8.925H12.6933V10.5117C13.1892 9.61917 14.28 8.72667 16.065 8.72667C19.635 8.72667 20.3292 11.1067 20.3292 14.1808V20.3292Z" fill="url(#paint0_linear_0_4)"/>
</g>
<defs>
<linearGradient id="paint0_linear_0_4" x1="11.9" y1="31.1383" x2="11.9003" y2="4.95833" gradientUnits="userSpaceOnUse">
<stop stop-color="#EA6035"/>
<stop offset="1" stop-color="#EF973E"/>
</linearGradient>
</defs>
</svg>
