<svg preserveAspectRatio="none" width="100%" height="100%" overflow="visible" style="display: block;" viewBox="0 0 26 21" fill="none" xmlns="http://www.w3.org/2000/svg">
<g id="Frame 44">
<path id="Vector" d="M2.20578 3.00825C4.02911 1.01194 6.78814 0 10.4049 0H11.7045V3.69994L10.6596 3.91125C8.87918 4.27088 7.64067 4.97831 6.97788 6.0165C6.63205 6.57579 6.43591 7.21618 6.40866 7.875H10.4049C10.7496 7.875 11.0801 8.01328 11.3239 8.25942C11.5676 8.50556 11.7045 8.8394 11.7045 9.1875V18.375C11.7045 19.8227 10.5388 21 9.10531 21H1.30776C0.96309 21 0.632534 20.8617 0.388813 20.6156C0.145092 20.3694 0.00817161 20.0356 0.00817161 19.6875V13.125L0.0120704 9.29381C0.00037409 9.14813 -0.246548 5.69625 2.20578 3.00825ZM23.4008 21H15.6033C15.2586 21 14.928 20.8617 14.6843 20.6156C14.4406 20.3694 14.3037 20.0356 14.3037 19.6875V13.125L14.3076 9.29381C14.2959 9.14813 14.049 5.69625 16.5013 3.00825C18.3246 1.01194 21.0836 0 24.7004 0H26V3.69994L24.9551 3.91125C23.1747 4.27088 21.9362 4.97831 21.2734 6.0165C20.9276 6.57579 20.7314 7.21618 20.7042 7.875H24.7004C25.0451 7.875 25.3756 8.01328 25.6194 8.25942C25.8631 8.50556 26 8.8394 26 9.1875V18.375C26 19.8227 24.8343 21 23.4008 21Z" fill="url(#paint0_linear_0_51)"/>
</g>
<defs>
<linearGradient id="paint0_linear_0_51" x1="13" y1="21" x2="13" y2="0" gradientUnits="userSpaceOnUse">
<stop stop-color="#F48021"/>
<stop offset="1" stop-color="#FFC868"/>
</linearGradient>
</defs>
</svg>
