<svg preserveAspectRatio="none" width="100%" height="100%" overflow="visible" style="display: block;" viewBox="0 0 30 30" fill="none" xmlns="http://www.w3.org/2000/svg">
<g id="Icon">
<path id="Vector" d="M14.9997 29.9995C6.72876 29.9995 0 23.2708 0 14.9995C0 6.72811 6.72876 0 14.9997 0C15.7767 0 16.4066 0.629931 16.4066 1.40686C16.4066 2.1838 15.7767 2.81373 14.9997 2.81373C8.28 2.81373 2.81325 8.28038 2.81325 15C2.81325 21.7196 8.28 27.1863 14.9997 27.1863C21.7195 27.1863 27.1862 21.7196 27.1862 15C27.1862 14.2231 27.8162 13.5931 28.5931 13.5931C29.3701 13.5931 30 14.2231 30 15C30 23.2708 23.2707 30 14.9997 30V29.9995Z" fill="url(#paint0_linear_0_27)"/>
<path id="Vector_2" d="M29.2347 3.95259C24.2918 8.57014 20.432 14.2464 18.0088 20.4407C17.6426 21.3773 16.8466 22.0837 15.8706 22.3246C15.8579 22.3278 15.8451 22.331 15.8324 22.3342C14.5163 22.6632 13.137 22.1113 12.4211 20.9586C10.337 17.603 8.05657 14.9666 6.79722 13.6202C6.27872 13.0662 6.26439 12.3014 6.97447 11.8328C8.55543 10.7895 10.5572 11.2629 12.0331 12.8443C12.792 13.6574 13.7786 14.7474 14.4993 15.5949C17.6426 11.2607 21.7434 6.68406 25.8685 3.19317C26.741 2.45445 27.9112 2.26287 28.9407 2.60994C29.5149 2.80365 29.6779 3.53865 29.2353 3.95206L29.2347 3.95259Z" fill="url(#paint1_linear_0_27)"/>
</g>
<defs>
<linearGradient id="paint0_linear_0_27" x1="0" y1="14.9996" x2="29.9996" y2="14.9996" gradientUnits="userSpaceOnUse">
<stop offset="0.14" stop-color="#EC6036"/>
<stop offset="1" stop-color="#F1983F"/>
</linearGradient>
<linearGradient id="paint1_linear_0_27" x1="6.4231" y1="12.4351" x2="29.488" y2="12.4351" gradientUnits="userSpaceOnUse">
<stop offset="0.14" stop-color="#EC6036"/>
<stop offset="1" stop-color="#F1983F"/>
</linearGradient>
</defs>
</svg>
