<svg preserveAspectRatio="none" width="100%" height="100%" overflow="visible" style="display: block;" viewBox="0 0 58 58" fill="none" xmlns="http://www.w3.org/2000/svg">
<g id="icon 2">
<g id="Vector" filter="url(#filter0_d_0_4)">
<path d="M42.5582 14.1968L21.5976 6.73479C17.6903 5.34381 13.3931 7.37767 11.9995 11.2776L4.52338 32.1985C3.12976 36.0984 5.16747 40.3875 9.07475 41.7784L30.0354 49.2404C33.9426 50.6314 38.2399 48.5975 39.6335 44.6977L47.1096 23.7767C48.5032 19.8768 46.4655 15.5877 42.5582 14.1968Z" fill="url(#paint0_linear_0_4)"/>
</g>
<g id="Vector_2" filter="url(#filter1_bdi_0_4)">
<path d="M46.0016 0H18.922C14.6452 0 11.1781 3.4605 11.1781 7.72924V34.7576C11.1781 39.0263 14.6452 42.4868 18.922 42.4868H46.0016C50.2784 42.4868 53.7455 39.0263 53.7455 34.7576V7.72924C53.7455 3.4605 50.2784 0 46.0016 0Z" fill="var(--fill-0, #F1F1F1)" fill-opacity="0.2" shape-rendering="crispEdges"/>
<path d="M46.0016 0H18.922C14.6452 0 11.1781 3.4605 11.1781 7.72924V34.7576C11.1781 39.0263 14.6452 42.4868 18.922 42.4868H46.0016C50.2784 42.4868 53.7455 39.0263 53.7455 34.7576V7.72924C53.7455 3.4605 50.2784 0 46.0016 0Z" fill="url(#paint1_linear_0_4)" fill-opacity="0.1" shape-rendering="crispEdges"/>
<path d="M18.9223 0.299805H46.0014C50.1131 0.299805 53.4457 3.62697 53.4457 7.72949V34.7578C53.4456 38.8602 50.113 42.1865 46.0014 42.1865H18.9223C14.8107 42.1865 11.4781 38.8602 11.4779 34.7578V7.72949C11.4779 3.62697 14.8106 0.299805 18.9223 0.299805Z" stroke="url(#paint2_linear_0_4)" stroke-opacity="0.1" stroke-width="0.6" shape-rendering="crispEdges"/>
</g>
<g id="Vector_3" filter="url(#filter2_bd_0_4)">
<path d="M21.3511 21.6995H20.2207C18.9988 21.6995 18.0082 22.6882 18.0082 23.9078V31.349C18.0082 32.5686 18.9988 33.5574 20.2207 33.5574H21.3511C22.573 33.5574 23.5636 32.5686 23.5636 31.349V23.9078C23.5636 22.6882 22.573 21.6995 21.3511 21.6995Z" fill="url(#paint3_linear_0_4)"/>
<path d="M20.2211 21.8176H21.351C22.5078 21.8176 23.4455 22.7534 23.4457 23.9075V31.3489C23.4457 32.5031 22.5079 33.4397 21.351 33.4397H20.2211C19.0642 33.4397 18.1264 32.5031 18.1264 31.3489V23.9075C18.1266 22.7534 19.0643 21.8176 20.2211 21.8176Z" stroke="url(#paint4_linear_0_4)" stroke-opacity="0.5" stroke-width="0.236249"/>
</g>
<g id="Vector_4" filter="url(#filter3_bd_0_4)">
<path d="M29.1191 16.9468H27.9888C26.7669 16.9468 25.7763 17.9355 25.7763 19.1551V31.3731C25.7763 32.5927 26.7669 33.5814 27.9888 33.5814H29.1191C30.3411 33.5814 31.3317 32.5927 31.3317 31.3731V19.1551C31.3317 17.9355 30.3411 16.9468 29.1191 16.9468Z" fill="url(#paint5_linear_0_4)"/>
<path d="M27.9892 17.0649H29.119C30.2759 17.0649 31.2136 18.0008 31.2138 19.1548V31.3735C31.2135 32.5275 30.2758 33.4634 29.119 33.4634H27.9892C26.8324 33.4634 25.8947 32.5275 25.8944 31.3735V19.1548C25.8946 18.0008 26.8324 17.0649 27.9892 17.0649Z" stroke="url(#paint6_linear_0_4)" stroke-opacity="0.5" stroke-width="0.236249"/>
</g>
<g id="Vector_5" filter="url(#filter4_bd_0_4)">
<path d="M36.9111 19.467H35.7808C34.5589 19.467 33.5683 20.4558 33.5683 21.6754V31.3729C33.5683 32.5926 34.5589 33.5813 35.7808 33.5813H36.9111C38.1331 33.5813 39.1237 32.5926 39.1237 31.3729V21.6754C39.1237 20.4558 38.1331 19.467 36.9111 19.467Z" fill="url(#paint7_linear_0_4)"/>
<path d="M35.7812 19.5852H36.911C38.0678 19.5852 39.0056 20.521 39.0058 21.675V31.3733C39.0056 32.5273 38.0678 33.4631 36.911 33.4631H35.7812C34.6243 33.4631 33.6866 32.5273 33.6864 31.3733V21.675C33.6866 20.521 34.6244 19.5852 35.7812 19.5852Z" stroke="url(#paint8_linear_0_4)" stroke-opacity="0.5" stroke-width="0.236249"/>
</g>
<g id="Vector_6" filter="url(#filter5_bd_0_4)">
<path d="M44.6789 24.2919H43.5486C42.3267 24.2919 41.3361 25.2806 41.3361 26.5002V31.373C41.3361 32.5926 42.3267 33.5814 43.5486 33.5814H44.6789C45.9009 33.5814 46.8915 32.5926 46.8915 31.373V26.5002C46.8915 25.2806 45.9009 24.2919 44.6789 24.2919Z" fill="url(#paint9_linear_0_4)"/>
<path d="M43.549 24.41H44.6789C45.8357 24.41 46.7734 25.3458 46.7736 26.4999V31.3729C46.7736 32.5271 45.8358 33.4628 44.6789 33.4628H43.549C42.3921 33.4628 41.4543 32.5271 41.4543 31.3729V26.4999C41.4544 25.3458 42.3922 24.41 43.549 24.41Z" stroke="url(#paint10_linear_0_4)" stroke-opacity="0.5" stroke-width="0.236249"/>
</g>
<g id="Vector_7" filter="url(#filter6_bd_0_4)">
<path d="M44.4626 18.747C44.1496 18.7499 43.8418 18.6669 43.5728 18.507L28.8065 10.2257L21.9765 16.1066C21.7967 16.2615 21.588 16.3795 21.3624 16.4538C21.1368 16.528 20.8988 16.557 20.6619 16.5392C20.425 16.5213 20.194 16.457 19.9821 16.3498C19.7703 16.2426 19.5817 16.0947 19.4273 15.9146C19.1197 15.5495 18.9677 15.0788 19.0036 14.6032C19.0396 14.1276 19.2607 13.685 19.6197 13.3702L27.3876 6.69709C27.6695 6.45554 28.0184 6.30546 28.3879 6.26687C28.7574 6.22827 29.1299 6.30298 29.4558 6.48104L45.3284 15.3865C45.738 15.6142 46.041 15.9941 46.1716 16.4435C46.3022 16.893 46.2498 17.3757 46.0258 17.7869C45.8732 18.0703 45.6483 18.3084 45.3737 18.477C45.0992 18.6456 44.7849 18.7388 44.4626 18.747V18.747Z" fill="url(#paint11_linear_0_4)"/>
<path d="M28.3998 6.38391C28.7453 6.34783 29.0941 6.41775 29.3988 6.58411L45.2709 15.4894C45.6533 15.702 45.9361 16.0572 46.058 16.4767C46.1646 16.8437 46.1403 17.2341 45.9926 17.5831L45.9223 17.7306C45.7796 17.9956 45.5687 18.2184 45.3119 18.3761C45.0551 18.5338 44.7608 18.6203 44.4594 18.6281C44.1687 18.6304 43.883 18.5539 43.6332 18.4054L43.6303 18.4044L28.8647 10.1222L28.7924 10.0822L28.7299 10.1359L21.8998 16.0167C21.7318 16.1615 21.5364 16.2725 21.3256 16.3419C21.1148 16.4113 20.8917 16.4377 20.6703 16.421C20.4491 16.4043 20.2334 16.3444 20.0356 16.2443C19.8376 16.1441 19.6613 16.0062 19.517 15.838H19.518C19.2305 15.4967 19.088 15.057 19.1215 14.6124C19.1551 14.1682 19.3616 13.7545 19.6967 13.4601L27.4633 6.78625L27.4643 6.78723C27.7278 6.56137 28.0543 6.42007 28.3998 6.38391Z" stroke="url(#paint12_linear_0_4)" stroke-opacity="0.5" stroke-width="0.236249"/>
</g>
</g>
<defs>
<filter id="filter0_d_0_4" x="0.0847893" y="6.29703" width="51.4634" height="51.3811" filterUnits="userSpaceOnUse" color-interpolation-filters="sRGB">
<feFlood flood-opacity="0" result="BackgroundImageFix"/>
<feColorMatrix in="SourceAlpha" type="matrix" values="0 0 0 0 0 0 0 0 0 0 0 0 0 0 0 0 0 0 127 0" result="hardAlpha"/>
<feOffset dy="4"/>
<feGaussianBlur stdDeviation="2"/>
<feComposite in2="hardAlpha" operator="out"/>
<feColorMatrix type="matrix" values="0 0 0 0 0 0 0 0 0 0 0 0 0 0 0 0 0 0 0.1 0"/>
<feBlend mode="normal" in2="BackgroundImageFix" result="effect1_dropShadow_0_4"/>
<feBlend mode="normal" in="SourceGraphic" in2="effect1_dropShadow_0_4" result="shape"/>
</filter>
<filter id="filter1_bdi_0_4" x="1.42813" y="-9.75" width="62.0673" height="61.9868" filterUnits="userSpaceOnUse" color-interpolation-filters="sRGB">
<feFlood flood-opacity="0" result="BackgroundImageFix"/>
<feGaussianBlur in="BackgroundImageFix" stdDeviation="4.875"/>
<feComposite in2="SourceAlpha" operator="in" result="effect1_backgroundBlur_0_4"/>
<feColorMatrix in="SourceAlpha" type="matrix" values="0 0 0 0 0 0 0 0 0 0 0 0 0 0 0 0 0 0 127 0" result="hardAlpha"/>
<feOffset dy="4"/>
<feGaussianBlur stdDeviation="2"/>
<feComposite in2="hardAlpha" operator="out"/>
<feColorMatrix type="matrix" values="0 0 0 0 0 0 0 0 0 0 0 0 0 0 0 0 0 0 0.15 0"/>
<feBlend mode="normal" in2="effect1_backgroundBlur_0_4" result="effect2_dropShadow_0_4"/>
<feBlend mode="normal" in="SourceGraphic" in2="effect2_dropShadow_0_4" result="shape"/>
<feColorMatrix in="SourceAlpha" type="matrix" values="0 0 0 0 0 0 0 0 0 0 0 0 0 0 0 0 0 0 127 0" result="hardAlpha"/>
<feOffset dy="1.625"/>
<feGaussianBlur stdDeviation="3.25"/>
<feComposite in2="hardAlpha" operator="arithmetic" k2="-1" k3="1"/>
<feColorMatrix type="matrix" values="0 0 0 0 1 0 0 0 0 1 0 0 0 0 1 0 0 0 0.4 0"/>
<feBlend mode="normal" in2="shape" result="effect3_innerShadow_0_4"/>
</filter>
<filter id="filter2_bd_0_4" x="0.289501" y="3.98075" width="40.9928" height="47.2953" filterUnits="userSpaceOnUse" color-interpolation-filters="sRGB">
<feFlood flood-opacity="0" result="BackgroundImageFix"/>
<feGaussianBlur in="BackgroundImageFix" stdDeviation="8.85935"/>
<feComposite in2="SourceAlpha" operator="in" result="effect1_backgroundBlur_0_4"/>
<feColorMatrix in="SourceAlpha" type="matrix" values="0 0 0 0 0 0 0 0 0 0 0 0 0 0 0 0 0 0 127 0" result="hardAlpha"/>
<feOffset dy="1.5"/>
<feGaussianBlur stdDeviation="2.5"/>
<feColorMatrix type="matrix" values="0 0 0 0 0.995833 0 0 0 0 0.456424 0 0 0 0 0.611217 0 0 0 0.5 0"/>
<feBlend mode="normal" in2="effect1_backgroundBlur_0_4" result="effect2_dropShadow_0_4"/>
<feBlend mode="normal" in="SourceGraphic" in2="effect2_dropShadow_0_4" result="shape"/>
</filter>
<filter id="filter3_bd_0_4" x="8.05757" y="-0.771931" width="40.9928" height="52.0721" filterUnits="userSpaceOnUse" color-interpolation-filters="sRGB">
<feFlood flood-opacity="0" result="BackgroundImageFix"/>
<feGaussianBlur in="BackgroundImageFix" stdDeviation="8.85935"/>
<feComposite in2="SourceAlpha" operator="in" result="effect1_backgroundBlur_0_4"/>
<feColorMatrix in="SourceAlpha" type="matrix" values="0 0 0 0 0 0 0 0 0 0 0 0 0 0 0 0 0 0 127 0" result="hardAlpha"/>
<feOffset dy="1.5"/>
<feGaussianBlur stdDeviation="2.5"/>
<feColorMatrix type="matrix" values="0 0 0 0 0.995833 0 0 0 0 0.456424 0 0 0 0 0.611217 0 0 0 0.5 0"/>
<feBlend mode="normal" in2="effect1_backgroundBlur_0_4" result="effect2_dropShadow_0_4"/>
<feBlend mode="normal" in="SourceGraphic" in2="effect2_dropShadow_0_4" result="shape"/>
</filter>
<filter id="filter4_bd_0_4" x="15.8496" y="1.74833" width="40.9928" height="49.5517" filterUnits="userSpaceOnUse" color-interpolation-filters="sRGB">
<feFlood flood-opacity="0" result="BackgroundImageFix"/>
<feGaussianBlur in="BackgroundImageFix" stdDeviation="8.85935"/>
<feComposite in2="SourceAlpha" operator="in" result="effect1_backgroundBlur_0_4"/>
<feColorMatrix in="SourceAlpha" type="matrix" values="0 0 0 0 0 0 0 0 0 0 0 0 0 0 0 0 0 0 127 0" result="hardAlpha"/>
<feOffset dy="1.5"/>
<feGaussianBlur stdDeviation="2.5"/>
<feColorMatrix type="matrix" values="0 0 0 0 0.995833 0 0 0 0 0.456424 0 0 0 0 0.611217 0 0 0 0.5 0"/>
<feBlend mode="normal" in2="effect1_backgroundBlur_0_4" result="effect2_dropShadow_0_4"/>
<feBlend mode="normal" in="SourceGraphic" in2="effect2_dropShadow_0_4" result="shape"/>
</filter>
<filter id="filter5_bd_0_4" x="23.6174" y="6.57316" width="40.9928" height="44.7269" filterUnits="userSpaceOnUse" color-interpolation-filters="sRGB">
<feFlood flood-opacity="0" result="BackgroundImageFix"/>
<feGaussianBlur in="BackgroundImageFix" stdDeviation="8.85935"/>
<feComposite in2="SourceAlpha" operator="in" result="effect1_backgroundBlur_0_4"/>
<feColorMatrix in="SourceAlpha" type="matrix" values="0 0 0 0 0 0 0 0 0 0 0 0 0 0 0 0 0 0 127 0" result="hardAlpha"/>
<feOffset dy="1.5"/>
<feGaussianBlur stdDeviation="2.5"/>
<feColorMatrix type="matrix" values="0 0 0 0 0.995833 0 0 0 0 0.456424 0 0 0 0 0.611217 0 0 0 0.5 0"/>
<feBlend mode="normal" in2="effect1_backgroundBlur_0_4" result="effect2_dropShadow_0_4"/>
<feBlend mode="normal" in="SourceGraphic" in2="effect2_dropShadow_0_4" result="shape"/>
</filter>
<filter id="filter6_bd_0_4" x="1.27974" y="-11.4618" width="62.681" height="47.9275" filterUnits="userSpaceOnUse" color-interpolation-filters="sRGB">
<feFlood flood-opacity="0" result="BackgroundImageFix"/>
<feGaussianBlur in="BackgroundImageFix" stdDeviation="8.85935"/>
<feComposite in2="SourceAlpha" operator="in" result="effect1_backgroundBlur_0_4"/>
<feColorMatrix in="SourceAlpha" type="matrix" values="0 0 0 0 0 0 0 0 0 0 0 0 0 0 0 0 0 0 127 0" result="hardAlpha"/>
<feOffset dy="1.5"/>
<feGaussianBlur stdDeviation="2.5"/>
<feColorMatrix type="matrix" values="0 0 0 0 0.995833 0 0 0 0 0.456424 0 0 0 0 0.611217 0 0 0 0.5 0"/>
<feBlend mode="normal" in2="effect1_backgroundBlur_0_4" result="effect2_dropShadow_0_4"/>
<feBlend mode="normal" in="SourceGraphic" in2="effect2_dropShadow_0_4" result="shape"/>
</filter>
<linearGradient id="paint0_linear_0_4" x1="13.4812" y1="11.7457" x2="49.8287" y2="30.7329" gradientUnits="userSpaceOnUse">
<stop stop-color="#FFDB94"/>
<stop offset="1" stop-color="#FE749C"/>
</linearGradient>
<linearGradient id="paint1_linear_0_4" x1="11.1781" y1="-0.152387" x2="61.9554" y2="25.9352" gradientUnits="userSpaceOnUse">
<stop stop-color="#FFDB94"/>
<stop offset="1" stop-color="#FE749C"/>
</linearGradient>
<linearGradient id="paint2_linear_0_4" x1="12.5084" y1="1.93122" x2="53.7455" y2="1.93122" gradientUnits="userSpaceOnUse">
<stop stop-color="#FFDB94"/>
<stop offset="1" stop-color="#FE749C"/>
</linearGradient>
<linearGradient id="paint3_linear_0_4" x1="23.1697" y1="23.8408" x2="16.9764" y2="23.9354" gradientUnits="userSpaceOnUse">
<stop stop-color="white"/>
<stop offset="1" stop-color="white" stop-opacity="0.2"/>
</linearGradient>
<linearGradient id="paint4_linear_0_4" x1="18.6066" y1="25.6772" x2="23.3241" y2="25.6894" gradientUnits="userSpaceOnUse">
<stop stop-color="white"/>
<stop offset="1" stop-color="white" stop-opacity="0"/>
</linearGradient>
<linearGradient id="paint5_linear_0_4" x1="30.9378" y1="19.9507" x2="24.7438" y2="20.0181" gradientUnits="userSpaceOnUse">
<stop stop-color="white"/>
<stop offset="1" stop-color="white" stop-opacity="0.2"/>
</linearGradient>
<linearGradient id="paint6_linear_0_4" x1="26.3747" y1="22.5269" x2="31.0921" y2="22.5356" gradientUnits="userSpaceOnUse">
<stop stop-color="white"/>
<stop offset="1" stop-color="white" stop-opacity="0"/>
</linearGradient>
<linearGradient id="paint7_linear_0_4" x1="38.7298" y1="22.0158" x2="32.536" y2="22.0953" gradientUnits="userSpaceOnUse">
<stop stop-color="white"/>
<stop offset="1" stop-color="white" stop-opacity="0.2"/>
</linearGradient>
<linearGradient id="paint8_linear_0_4" x1="34.1667" y1="24.2017" x2="38.8841" y2="24.2119" gradientUnits="userSpaceOnUse">
<stop stop-color="white"/>
<stop offset="1" stop-color="white" stop-opacity="0"/>
</linearGradient>
<linearGradient id="paint9_linear_0_4" x1="46.4976" y1="25.9694" x2="40.3052" y2="26.0901" gradientUnits="userSpaceOnUse">
<stop stop-color="white"/>
<stop offset="1" stop-color="white" stop-opacity="0.2"/>
</linearGradient>
<linearGradient id="paint10_linear_0_4" x1="41.9345" y1="27.408" x2="46.6519" y2="27.4236" gradientUnits="userSpaceOnUse">
<stop stop-color="white"/>
<stop offset="1" stop-color="white" stop-opacity="0"/>
</linearGradient>
<linearGradient id="paint11_linear_0_4" x1="44.3105" y1="8.51242" x2="14.0843" y2="10.662" gradientUnits="userSpaceOnUse">
<stop stop-color="white"/>
<stop offset="1" stop-color="white" stop-opacity="0.2"/>
</linearGradient>
<linearGradient id="paint12_linear_0_4" x1="21.9332" y1="10.4468" x2="45.0641" y2="10.7253" gradientUnits="userSpaceOnUse">
<stop stop-color="white"/>
<stop offset="1" stop-color="white" stop-opacity="0"/>
</linearGradient>
</defs>
</svg>
