<svg preserveAspectRatio="none" width="100%" height="100%" overflow="visible" style="display: block;" viewBox="0 0 20 20" fill="none" xmlns="http://www.w3.org/2000/svg">
<g id="Frame 1000003536">
<path id="Vector" d="M10.3954 1.30004C15.4188 1.30004 19.491 5.37232 19.4911 10.3957C19.4911 15.4192 15.4189 19.4914 10.3954 19.4914C5.37195 19.4914 1.29967 15.4192 1.29967 10.3957C1.29975 5.37236 5.37199 1.30012 10.3954 1.30004ZM13.6883 8.03442C13.4151 7.76159 12.9722 7.76141 12.6991 8.03442L9.46178 11.2717L8.09167 9.90063C7.81842 9.62739 7.37467 9.62739 7.10143 9.90063C6.82864 10.1738 6.8286 10.6167 7.10143 10.8899L8.96764 12.7561C9.09882 12.8872 9.27731 12.9612 9.46276 12.9612C9.64802 12.9611 9.82581 12.887 9.9569 12.7561L13.6883 9.02465C13.9616 8.75144 13.9615 8.30767 13.6883 8.03442Z" fill="url(#paint0_linear_0_18)"/>
</g>
<defs>
<linearGradient id="paint0_linear_0_18" x1="10.3954" y1="19.4914" x2="10.3954" y2="1.30004" gradientUnits="userSpaceOnUse">
<stop stop-color="#F48021"/>
<stop offset="1" stop-color="#FFC868"/>
</linearGradient>
</defs>
</svg>
