<svg preserveAspectRatio="none" width="100%" height="100%" overflow="visible" style="display: block;" viewBox="0 0 20 20" fill="none" xmlns="http://www.w3.org/2000/svg">
<g id="Frame 1000003535">
<path id="Vector" d="M10.3954 1.29883C15.4188 1.29883 19.491 5.3711 19.4911 10.3945C19.4911 15.418 15.4189 19.4902 10.3954 19.4902C5.37195 19.4902 1.29968 15.418 1.29968 10.3945C1.29976 5.37115 5.372 1.2989 10.3954 1.29883ZM13.6884 8.0332C13.4151 7.76041 12.9722 7.76021 12.6991 8.0332L9.46179 11.2705L8.09167 9.89941C7.81843 9.6262 7.37467 9.62618 7.10144 9.89941C6.82853 10.1726 6.82859 10.6155 7.10144 10.8887L8.96765 12.7549C9.09884 12.886 9.27728 12.9599 9.46277 12.96C9.64808 12.9599 9.82581 12.8859 9.95691 12.7549L13.6884 9.02344C13.9616 8.7502 13.9616 8.30645 13.6884 8.0332Z" fill="url(#paint0_linear_0_24)"/>
</g>
<defs>
<linearGradient id="paint0_linear_0_24" x1="10.3954" y1="19.4902" x2="10.3954" y2="1.29883" gradientUnits="userSpaceOnUse">
<stop stop-color="#F48021"/>
<stop offset="1" stop-color="#FFC868"/>
</linearGradient>
</defs>
</svg>
