<svg preserveAspectRatio="none" width="100%" height="100%" overflow="visible" style="display: block;" viewBox="0 0 20 20" fill="none" xmlns="http://www.w3.org/2000/svg">
<g id="Frame 1000003536">
<path id="Vector" d="M10.3954 1.29895C15.4188 1.29895 19.491 5.37122 19.4911 10.3947C19.4911 15.4181 15.4189 19.4904 10.3954 19.4904C5.37195 19.4903 1.29967 15.4181 1.29967 10.3947C1.29975 5.37127 5.37199 1.29902 10.3954 1.29895ZM13.6883 8.03333C13.4151 7.76053 12.9722 7.76033 12.6991 8.03333L9.46178 11.2706L8.09167 9.89954C7.81842 9.62633 7.37466 9.62631 7.10143 9.89954C6.82853 10.1727 6.82859 10.6156 7.10143 10.8888L8.96764 12.755C9.09883 12.8861 9.27727 12.9601 9.46276 12.9601C9.64807 12.96 9.8258 12.886 9.9569 12.755L13.6883 9.02356C13.9616 8.75032 13.9616 8.30657 13.6883 8.03333Z" fill="url(#paint0_linear_0_4)"/>
</g>
<defs>
<linearGradient id="paint0_linear_0_4" x1="10.3954" y1="19.4904" x2="10.3954" y2="1.29895" gradientUnits="userSpaceOnUse">
<stop stop-color="#F48021"/>
<stop offset="1" stop-color="#FFC868"/>
</linearGradient>
</defs>
</svg>
